M48
INCH,TZ
T1C0.016
T2C0.039
T3C0.040
T4C0.091
%
G90
G05
T1
X39685Y-29134
X40000Y-32313
X41260Y-30551
X41260Y-33780
X42490Y-26457
X42520Y-26063
X43465Y-31339
X43465Y-33307
X43976Y-36083
X44646Y-31969
X45512Y-34331
X46142Y-34252
X46516Y-27441
X48465Y-27441
X53622Y-34882
T2
X51810Y-25625
X51810Y-26625
X51810Y-27425
X51810Y-28425
T3
X49606Y-32126
X49606Y-33543
X49606Y-36693
X49606Y-38110
X55354Y-32913
X55354Y-37480
T4
X52860Y-24425
X52860Y-29825
T0
M30
