G04 #@! TF.FileFunction,Copper,L1,Top,Signal*
%FSLAX46Y46*%
G04 Gerber Fmt 4.6, Leading zero omitted, Abs format (unit mm)*
G04 Created by KiCad (PCBNEW (2015-06-20 BZR 5796, Git fe7bc27)-product) date 22.6.2015 5:54:44*
%MOMM*%
G01*
G04 APERTURE LIST*
%ADD10C,0.100000*%
%ADD11R,1.250000X1.500000*%
%ADD12R,2.000000X1.600000*%
%ADD13R,3.500000X3.500000*%
%ADD14R,1.850000X2.400000*%
%ADD15R,1.350000X0.400000*%
%ADD16C,1.501140*%
%ADD17C,2.999740*%
%ADD18R,2.235200X2.235200*%
%ADD19R,1.200000X0.900000*%
%ADD20R,1.500000X0.600000*%
%ADD21C,0.600000*%
%ADD22C,0.800000*%
%ADD23C,0.250000*%
%ADD24C,0.254000*%
G04 APERTURE END LIST*
D10*
D11*
X127775000Y-72175000D03*
X127775000Y-69675000D03*
D12*
X113600000Y-89400000D03*
X109600000Y-89400000D03*
X113600000Y-93600000D03*
X109600000Y-93600000D03*
D13*
X110996400Y-64200000D03*
X117803600Y-64200000D03*
D14*
X103900000Y-71800000D03*
X103900000Y-61800000D03*
D15*
X105962540Y-65499100D03*
X105962540Y-66149100D03*
X105962540Y-66799100D03*
X105962540Y-67449100D03*
X105962540Y-68099100D03*
D16*
X131597880Y-65087140D03*
X131597880Y-67627140D03*
X131597880Y-69659140D03*
X131597880Y-72199140D03*
D17*
X134264880Y-62039140D03*
X134264880Y-75755140D03*
D18*
X126000000Y-81600000D03*
X126000000Y-85200000D03*
X140600000Y-83600000D03*
X126000000Y-93200000D03*
X126000000Y-96800000D03*
X140600000Y-95200000D03*
D19*
X103900000Y-89400000D03*
X106100000Y-89400000D03*
X103900000Y-93600000D03*
X106100000Y-93600000D03*
D20*
X103100000Y-76990000D03*
X103100000Y-78260000D03*
X103100000Y-79530000D03*
X103100000Y-80800000D03*
X103100000Y-82070000D03*
X103100000Y-83340000D03*
X103100000Y-84610000D03*
X108500000Y-84610000D03*
X108500000Y-83340000D03*
X108500000Y-82070000D03*
X108500000Y-80800000D03*
X108500000Y-79530000D03*
X108500000Y-78260000D03*
X108500000Y-76990000D03*
D21*
X111700000Y-91650000D03*
X118150000Y-69700000D03*
X123100000Y-69700000D03*
X100800000Y-74000000D03*
X108000000Y-66200000D03*
X101600000Y-82075000D03*
X107925000Y-67200000D03*
X136200000Y-88600000D03*
X110400000Y-84600000D03*
X115600000Y-87200000D03*
X110400000Y-79600000D03*
X117200000Y-87000000D03*
X113400000Y-81200000D03*
X104800000Y-85800000D03*
X104800000Y-77600000D03*
D22*
X103100000Y-80800000D02*
X104600000Y-80800000D01*
X109625000Y-72175000D02*
X122775000Y-72175000D01*
X106000000Y-75800000D02*
X109625000Y-72175000D01*
X106000000Y-79400000D02*
X106000000Y-75800000D01*
X104600000Y-80800000D02*
X106000000Y-79400000D01*
X117803600Y-64200000D02*
X117803600Y-67203600D01*
X122775000Y-72175000D02*
X127775000Y-72175000D01*
X117803600Y-67203600D02*
X122775000Y-72175000D01*
X127775000Y-72175000D02*
X131573740Y-72175000D01*
X131573740Y-72175000D02*
X131597880Y-72199140D01*
D23*
X111700000Y-91650000D02*
X113600000Y-93550000D01*
X113600000Y-93600000D02*
X113600000Y-93550000D01*
X127775000Y-69675000D02*
X123125000Y-69675000D01*
X105962540Y-68312540D02*
X105962540Y-68099100D01*
X107350000Y-69700000D02*
X105962540Y-68312540D01*
X118150000Y-69700000D02*
X107350000Y-69700000D01*
X123125000Y-69675000D02*
X123100000Y-69700000D01*
X105962540Y-68162540D02*
X105962540Y-68099100D01*
X109600000Y-89400000D02*
X106100000Y-89400000D01*
X109600000Y-93600000D02*
X106100000Y-93600000D01*
X110996400Y-64200000D02*
X107261640Y-64200000D01*
X107261640Y-64200000D02*
X105962540Y-65499100D01*
X105962540Y-66149100D02*
X107949100Y-66149100D01*
X101930000Y-79530000D02*
X103100000Y-79530000D01*
X100800000Y-78400000D02*
X101930000Y-79530000D01*
X100800000Y-74000000D02*
X100800000Y-78400000D01*
X107949100Y-66149100D02*
X108000000Y-66200000D01*
X105962540Y-66799100D02*
X107524100Y-66799100D01*
X101605000Y-82070000D02*
X103100000Y-82070000D01*
X101600000Y-82075000D02*
X101605000Y-82070000D01*
X107524100Y-66799100D02*
X107925000Y-67200000D01*
X108500000Y-82070000D02*
X125530000Y-82070000D01*
X125530000Y-82070000D02*
X126000000Y-81600000D01*
X108500000Y-83340000D02*
X110740000Y-83340000D01*
X112600000Y-85200000D02*
X126000000Y-85200000D01*
X110740000Y-83340000D02*
X112600000Y-85200000D01*
X108500000Y-84610000D02*
X110390000Y-84610000D01*
X136200000Y-88600000D02*
X140600000Y-84200000D01*
X110390000Y-84610000D02*
X110400000Y-84600000D01*
X140600000Y-84200000D02*
X140600000Y-83600000D01*
X108500000Y-79530000D02*
X110330000Y-79530000D01*
X121600000Y-93200000D02*
X126000000Y-93200000D01*
X115600000Y-87200000D02*
X121600000Y-93200000D01*
X110330000Y-79530000D02*
X110400000Y-79600000D01*
X108500000Y-78260000D02*
X110460000Y-78260000D01*
X128800000Y-94000000D02*
X126000000Y-96800000D01*
X128800000Y-91600000D02*
X128800000Y-94000000D01*
X127800000Y-90600000D02*
X128800000Y-91600000D01*
X120800000Y-90600000D02*
X127800000Y-90600000D01*
X117200000Y-87000000D02*
X120800000Y-90600000D01*
X110460000Y-78260000D02*
X113400000Y-81200000D01*
X108500000Y-76990000D02*
X111190000Y-76990000D01*
X143000000Y-92800000D02*
X140600000Y-95200000D01*
X143000000Y-81600000D02*
X143000000Y-92800000D01*
X140200000Y-78800000D02*
X143000000Y-81600000D01*
X113000000Y-78800000D02*
X140200000Y-78800000D01*
X111190000Y-76990000D02*
X113000000Y-78800000D01*
X103100000Y-78260000D02*
X104140000Y-78260000D01*
X104140000Y-78260000D02*
X104800000Y-77600000D01*
X103900000Y-89400000D02*
X103900000Y-86700000D01*
X103900000Y-86700000D02*
X104800000Y-85800000D01*
X104190000Y-76990000D02*
X103100000Y-76990000D01*
X104800000Y-77600000D02*
X104190000Y-76990000D01*
X103100000Y-78260000D02*
X103100000Y-76990000D01*
X103100000Y-83340000D02*
X102460000Y-83340000D01*
X102460000Y-83340000D02*
X101600000Y-84200000D01*
X101600000Y-84200000D02*
X101600000Y-86110000D01*
X103900000Y-93600000D02*
X102800000Y-93600000D01*
X101600000Y-86110000D02*
X103100000Y-84610000D01*
X101600000Y-92400000D02*
X101600000Y-86110000D01*
X102800000Y-93600000D02*
X101600000Y-92400000D01*
X103100000Y-84610000D02*
X103100000Y-83340000D01*
D24*
G36*
X112473000Y-65673000D02*
X109420610Y-65673000D01*
X108840161Y-65479517D01*
X108819962Y-65476970D01*
X108800000Y-65473000D01*
X108595405Y-65473000D01*
X108530327Y-65407808D01*
X108186799Y-65265162D01*
X107814833Y-65264838D01*
X107514095Y-65389100D01*
X106942552Y-65389100D01*
X106887180Y-65351723D01*
X106637540Y-65301660D01*
X105669146Y-65301660D01*
X106883060Y-62527000D01*
X112473000Y-62527000D01*
X112473000Y-65673000D01*
X112473000Y-65673000D01*
G37*
X112473000Y-65673000D02*
X109420610Y-65673000D01*
X108840161Y-65479517D01*
X108819962Y-65476970D01*
X108800000Y-65473000D01*
X108595405Y-65473000D01*
X108530327Y-65407808D01*
X108186799Y-65265162D01*
X107814833Y-65264838D01*
X107514095Y-65389100D01*
X106942552Y-65389100D01*
X106887180Y-65351723D01*
X106637540Y-65301660D01*
X105669146Y-65301660D01*
X106883060Y-62527000D01*
X112473000Y-62527000D01*
X112473000Y-65673000D01*
G36*
X100897852Y-92690839D02*
X100897852Y-92690839D01*
X101062599Y-92937401D01*
X102262599Y-94137401D01*
X102509160Y-94302148D01*
X102735727Y-94347215D01*
X102839327Y-94504927D01*
X103050360Y-94647377D01*
X103300000Y-94697440D01*
X104500000Y-94697440D01*
X104742123Y-94650463D01*
X104954927Y-94510673D01*
X104999614Y-94444471D01*
X105039327Y-94504927D01*
X105250360Y-94647377D01*
X105500000Y-94697440D01*
X106700000Y-94697440D01*
X106942123Y-94650463D01*
X107154927Y-94510673D01*
X107256633Y-94360000D01*
X107952560Y-94360000D01*
X107952560Y-94400000D01*
X107999537Y-94642123D01*
X108139327Y-94854927D01*
X108350360Y-94997377D01*
X108600000Y-95047440D01*
X110600000Y-95047440D01*
X110842123Y-95000463D01*
X111054927Y-94860673D01*
X111197377Y-94649640D01*
X111247440Y-94400000D01*
X111247440Y-92800000D01*
X111200463Y-92557877D01*
X111060673Y-92345073D01*
X110849640Y-92202623D01*
X110600000Y-92152560D01*
X108600000Y-92152560D01*
X108357877Y-92199537D01*
X108145073Y-92339327D01*
X108002623Y-92550360D01*
X107952560Y-92800000D01*
X107952560Y-92840000D01*
X107255875Y-92840000D01*
X107160673Y-92695073D01*
X106949640Y-92552623D01*
X106700000Y-92502560D01*
X105500000Y-92502560D01*
X105257877Y-92549537D01*
X105045073Y-92689327D01*
X105000386Y-92755529D01*
X104960673Y-92695073D01*
X104749640Y-92552623D01*
X104500000Y-92502560D01*
X103300000Y-92502560D01*
X103057877Y-92549537D01*
X102916928Y-92642126D01*
X102360000Y-92085198D01*
X102360000Y-86424802D01*
X103227362Y-85557440D01*
X103850000Y-85557440D01*
X103891674Y-85549354D01*
X103865162Y-85613201D01*
X103865121Y-85660077D01*
X103362599Y-86162599D01*
X103197852Y-86409161D01*
X103140000Y-86700000D01*
X103140000Y-88333603D01*
X103057877Y-88349537D01*
X102845073Y-88489327D01*
X102702623Y-88700360D01*
X102652560Y-88950000D01*
X102652560Y-89850000D01*
X102699537Y-90092123D01*
X102839327Y-90304927D01*
X103050360Y-90447377D01*
X103300000Y-90497440D01*
X104500000Y-90497440D01*
X104742123Y-90450463D01*
X104954927Y-90310673D01*
X104999614Y-90244471D01*
X105039327Y-90304927D01*
X105250360Y-90447377D01*
X105500000Y-90497440D01*
X106700000Y-90497440D01*
X106942123Y-90450463D01*
X107154927Y-90310673D01*
X107256633Y-90160000D01*
X107952560Y-90160000D01*
X107952560Y-90200000D01*
X107999537Y-90442123D01*
X108139327Y-90654927D01*
X108350360Y-90797377D01*
X108600000Y-90847440D01*
X110600000Y-90847440D01*
X110842123Y-90800463D01*
X111054927Y-90660673D01*
X111197377Y-90449640D01*
X111247440Y-90200000D01*
X111247440Y-88600000D01*
X111200463Y-88357877D01*
X111060673Y-88145073D01*
X110849640Y-88002623D01*
X110600000Y-87952560D01*
X108600000Y-87952560D01*
X108357877Y-87999537D01*
X108145073Y-88139327D01*
X108002623Y-88350360D01*
X107952560Y-88600000D01*
X107952560Y-88640000D01*
X107255875Y-88640000D01*
X107160673Y-88495073D01*
X106949640Y-88352623D01*
X106700000Y-88302560D01*
X105500000Y-88302560D01*
X105257877Y-88349537D01*
X105045073Y-88489327D01*
X105000386Y-88555529D01*
X104960673Y-88495073D01*
X104749640Y-88352623D01*
X104660000Y-88334647D01*
X104660000Y-87014802D01*
X104939680Y-86735122D01*
X104985167Y-86735162D01*
X105328943Y-86593117D01*
X105592192Y-86330327D01*
X105702433Y-86064838D01*
X117014833Y-86064838D01*
X116671057Y-86206883D01*
X116407808Y-86469673D01*
X116344435Y-86622290D01*
X116130327Y-86407808D01*
X115786799Y-86265162D01*
X115414833Y-86264838D01*
X115071057Y-86406883D01*
X114807808Y-86669673D01*
X114665162Y-87013201D01*
X114664838Y-87385167D01*
X114806883Y-87728943D01*
X115069673Y-87992192D01*
X115413201Y-88134838D01*
X115460077Y-88134879D01*
X121062599Y-93737401D01*
X121309160Y-93902148D01*
X121600000Y-93960000D01*
X124234960Y-93960000D01*
X124234960Y-94317600D01*
X124281937Y-94559723D01*
X124421727Y-94772527D01*
X124632760Y-94914977D01*
X124882400Y-94965040D01*
X126760158Y-94965040D01*
X126690238Y-95034960D01*
X124882400Y-95034960D01*
X124640277Y-95081937D01*
X124427473Y-95221727D01*
X124285023Y-95432760D01*
X124234960Y-95682400D01*
X124234960Y-97917600D01*
X124281937Y-98159723D01*
X124421727Y-98372527D01*
X124632760Y-98514977D01*
X124882400Y-98565040D01*
X127117600Y-98565040D01*
X127359723Y-98518063D01*
X127572527Y-98378273D01*
X127714977Y-98167240D01*
X127765040Y-97917600D01*
X127765040Y-96109762D01*
X129337401Y-94537401D01*
X129502148Y-94290839D01*
X129560000Y-94000000D01*
X129560000Y-91600000D01*
X129502148Y-91309161D01*
X129337401Y-91062599D01*
X128337401Y-90062599D01*
X128090839Y-89897852D01*
X127800000Y-89840000D01*
X121114802Y-89840000D01*
X118135122Y-86860320D01*
X118135162Y-86814833D01*
X117993117Y-86471057D01*
X117730327Y-86207808D01*
X117386799Y-86065162D01*
X117014833Y-86064838D01*
X105702433Y-86064838D01*
X105734838Y-85986799D01*
X105735162Y-85614833D01*
X105593117Y-85271057D01*
X105330327Y-85007808D01*
X104986799Y-84865162D01*
X104614833Y-84864838D01*
X104496709Y-84913646D01*
X104497440Y-84910000D01*
X104497440Y-84310000D01*
X104450463Y-84067877D01*
X104389603Y-83975229D01*
X104447377Y-83889640D01*
X104497440Y-83640000D01*
X104497440Y-83040000D01*
X104450463Y-82797877D01*
X104389603Y-82705229D01*
X104447377Y-82619640D01*
X104497440Y-82370000D01*
X104497440Y-81835000D01*
X104599995Y-81835000D01*
X104600000Y-81835001D01*
X104996077Y-81756215D01*
X105331856Y-81531856D01*
X106731856Y-80131856D01*
X106956215Y-79796077D01*
X107035001Y-79400000D01*
X107035000Y-79399995D01*
X107035000Y-76228712D01*
X107221151Y-76042560D01*
X107750000Y-76042560D01*
X107507877Y-76089537D01*
X107295073Y-76229327D01*
X107152623Y-76440360D01*
X107102560Y-76690000D01*
X107102560Y-77290000D01*
X107149537Y-77532123D01*
X107210397Y-77624771D01*
X107152623Y-77710360D01*
X107102560Y-77960000D01*
X107102560Y-78560000D01*
X107149537Y-78802123D01*
X107210397Y-78894771D01*
X107152623Y-78980360D01*
X107102560Y-79230000D01*
X107102560Y-79830000D01*
X107149537Y-80072123D01*
X107289327Y-80284927D01*
X107500360Y-80427377D01*
X107750000Y-80477440D01*
X109250000Y-80477440D01*
X109492123Y-80430463D01*
X109704927Y-80290673D01*
X109705381Y-80290000D01*
X109767659Y-80290000D01*
X109869673Y-80392192D01*
X110213201Y-80534838D01*
X110585167Y-80535162D01*
X110928943Y-80393117D01*
X111192192Y-80130327D01*
X111210774Y-80085576D01*
X112435198Y-81310000D01*
X109703158Y-81310000D01*
X109499640Y-81172623D01*
X109250000Y-81122560D01*
X107750000Y-81122560D01*
X107507877Y-81169537D01*
X107295073Y-81309327D01*
X107152623Y-81520360D01*
X107102560Y-81770000D01*
X107102560Y-82370000D01*
X107149537Y-82612123D01*
X107210397Y-82704771D01*
X107152623Y-82790360D01*
X107102560Y-83040000D01*
X107102560Y-83640000D01*
X107149537Y-83882123D01*
X107210397Y-83974771D01*
X107152623Y-84060360D01*
X107102560Y-84310000D01*
X107102560Y-84910000D01*
X107149537Y-85152123D01*
X107289327Y-85364927D01*
X107500360Y-85507377D01*
X107750000Y-85557440D01*
X109250000Y-85557440D01*
X109492123Y-85510463D01*
X109704927Y-85370673D01*
X109705381Y-85370000D01*
X109847520Y-85370000D01*
X109869673Y-85392192D01*
X110213201Y-85534838D01*
X110585167Y-85535162D01*
X110928943Y-85393117D01*
X111192192Y-85130327D01*
X111269455Y-84944257D01*
X112062599Y-85737401D01*
X112309160Y-85902148D01*
X112600000Y-85960000D01*
X124234960Y-85960000D01*
X124234960Y-86317600D01*
X124281937Y-86559723D01*
X124421727Y-86772527D01*
X124632760Y-86914977D01*
X124882400Y-86965040D01*
X127117600Y-86965040D01*
X127359723Y-86918063D01*
X127572527Y-86778273D01*
X127714977Y-86567240D01*
X127765040Y-86317600D01*
X127765040Y-84082400D01*
X127718063Y-83840277D01*
X127578273Y-83627473D01*
X127367240Y-83485023D01*
X127117600Y-83434960D01*
X124882400Y-83434960D01*
X124640277Y-83481937D01*
X124427473Y-83621727D01*
X124285023Y-83832760D01*
X124234960Y-84082400D01*
X124234960Y-84440000D01*
X112914802Y-84440000D01*
X111304802Y-82830000D01*
X124256768Y-82830000D01*
X124281937Y-82959723D01*
X124421727Y-83172527D01*
X124632760Y-83314977D01*
X124882400Y-83365040D01*
X127117600Y-83365040D01*
X127359723Y-83318063D01*
X127572527Y-83178273D01*
X127714977Y-82967240D01*
X127765040Y-82717600D01*
X127765040Y-80482400D01*
X127718063Y-80240277D01*
X127578273Y-80027473D01*
X127367240Y-79885023D01*
X127117600Y-79834960D01*
X124882400Y-79834960D01*
X124640277Y-79881937D01*
X124427473Y-80021727D01*
X124285023Y-80232760D01*
X124234960Y-80482400D01*
X124234960Y-81310000D01*
X114334905Y-81310000D01*
X114335162Y-81014833D01*
X114193117Y-80671057D01*
X113930327Y-80407808D01*
X113586799Y-80265162D01*
X113539923Y-80265121D01*
X112793782Y-79518980D01*
X113000000Y-79560000D01*
X139885198Y-79560000D01*
X142240000Y-81914802D01*
X142240000Y-82121441D01*
X142178273Y-82027473D01*
X141967240Y-81885023D01*
X141717600Y-81834960D01*
X139482400Y-81834960D01*
X139240277Y-81881937D01*
X139027473Y-82021727D01*
X138885023Y-82232760D01*
X138834960Y-82482400D01*
X138834960Y-84717600D01*
X138863013Y-84862185D01*
X136060320Y-87664878D01*
X136014833Y-87664838D01*
X135671057Y-87806883D01*
X135407808Y-88069673D01*
X135265162Y-88413201D01*
X135264838Y-88785167D01*
X135406883Y-89128943D01*
X135669673Y-89392192D01*
X136013201Y-89534838D01*
X136385167Y-89535162D01*
X136728943Y-89393117D01*
X136992192Y-89130327D01*
X137134838Y-88786799D01*
X137134879Y-88739923D01*
X140509762Y-85365040D01*
X141717600Y-85365040D01*
X141959723Y-85318063D01*
X142172527Y-85178273D01*
X142240000Y-85078315D01*
X142240000Y-92485198D01*
X141290238Y-93434960D01*
X139482400Y-93434960D01*
X139240277Y-93481937D01*
X139027473Y-93621727D01*
X138885023Y-93832760D01*
X138834960Y-94082400D01*
X138834960Y-96317600D01*
X138881937Y-96559723D01*
X139021727Y-96772527D01*
X139232760Y-96914977D01*
X139482400Y-96965040D01*
X141717600Y-96965040D01*
X141959723Y-96918063D01*
X142172527Y-96778273D01*
X142314977Y-96567240D01*
X142365040Y-96317600D01*
X142365040Y-94509762D01*
X143537401Y-93337401D01*
X143702148Y-93090839D01*
X143760000Y-92800000D01*
X143760000Y-81600000D01*
X143702148Y-81309161D01*
X143537401Y-81062599D01*
X140737401Y-78262599D01*
X140490839Y-78097852D01*
X140200000Y-78040000D01*
X113314802Y-78040000D01*
X111727401Y-76452599D01*
X111480839Y-76287852D01*
X111190000Y-76230000D01*
X109703158Y-76230000D01*
X109499640Y-76092623D01*
X109250000Y-76042560D01*
X107750000Y-76042560D01*
X107221151Y-76042560D01*
X110053711Y-73210000D01*
X126577703Y-73210000D01*
X126689327Y-73379927D01*
X126900360Y-73522377D01*
X127150000Y-73572440D01*
X128400000Y-73572440D01*
X128642123Y-73525463D01*
X128854927Y-73385673D01*
X128973509Y-73210000D01*
X130649193Y-73210000D01*
X130811993Y-73373084D01*
X131321064Y-73584469D01*
X131872278Y-73584950D01*
X132381717Y-73374454D01*
X132771824Y-72985027D01*
X132983209Y-72475956D01*
X132983690Y-71924742D01*
X132773194Y-71415303D01*
X132383767Y-71025196D01*
X132152499Y-70929165D01*
X132381717Y-70834454D01*
X132771824Y-70445027D01*
X132983209Y-69935956D01*
X132983690Y-69384742D01*
X132773194Y-68875303D01*
X132541373Y-68643077D01*
X132771824Y-68413027D01*
X132983209Y-67903956D01*
X132983690Y-67352742D01*
X132773194Y-66843303D01*
X132383767Y-66453196D01*
X131874696Y-66241811D01*
X131323482Y-66241330D01*
X130814043Y-66451826D01*
X130423936Y-66841253D01*
X130212551Y-67350324D01*
X130212070Y-67901538D01*
X130422566Y-68410977D01*
X130654387Y-68643203D01*
X130423936Y-68873253D01*
X130212551Y-69382324D01*
X130212070Y-69933538D01*
X130422566Y-70442977D01*
X130811993Y-70833084D01*
X131043261Y-70929115D01*
X130814043Y-71023826D01*
X130697666Y-71140000D01*
X128972297Y-71140000D01*
X128860673Y-70970073D01*
X128649640Y-70827623D01*
X128400000Y-70777560D01*
X127150000Y-70777560D01*
X126907877Y-70824537D01*
X126695073Y-70964327D01*
X126576491Y-71140000D01*
X123203711Y-71140000D01*
X118838600Y-66774888D01*
X118838600Y-66597440D01*
X119553600Y-66597440D01*
X119795723Y-66550463D01*
X120008527Y-66410673D01*
X120150977Y-66199640D01*
X120201040Y-65950000D01*
X120201040Y-62450000D01*
X120154063Y-62207877D01*
X120014273Y-61995073D01*
X119803240Y-61852623D01*
X119553600Y-61802560D01*
X116053600Y-61802560D01*
X115811477Y-61849537D01*
X115598673Y-61989327D01*
X115456223Y-62200360D01*
X115406160Y-62450000D01*
X115406160Y-65950000D01*
X115453137Y-66192123D01*
X115592927Y-66404927D01*
X115803960Y-66547377D01*
X116053600Y-66597440D01*
X116768600Y-66597440D01*
X116768600Y-67203595D01*
X116768599Y-67203600D01*
X116847385Y-67599677D01*
X117071744Y-67935456D01*
X120276289Y-71140000D01*
X109625005Y-71140000D01*
X109625000Y-71139999D01*
X109228923Y-71218785D01*
X108893144Y-71443144D01*
X108893142Y-71443147D01*
X105268144Y-75068144D01*
X105043785Y-75403923D01*
X104964999Y-75800000D01*
X104965000Y-75800005D01*
X104965000Y-76665143D01*
X104939923Y-76665121D01*
X104727401Y-76452599D01*
X104480839Y-76287852D01*
X104324978Y-76256849D01*
X104310673Y-76235073D01*
X104099640Y-76092623D01*
X103850000Y-76042560D01*
X102350000Y-76042560D01*
X102107877Y-76089537D01*
X101895073Y-76229327D01*
X101752623Y-76440360D01*
X101702560Y-76690000D01*
X101702560Y-77290000D01*
X101749537Y-77532123D01*
X101810397Y-77624771D01*
X101752623Y-77710360D01*
X101702560Y-77960000D01*
X101702560Y-78227758D01*
X101560000Y-78085198D01*
X101560000Y-74562463D01*
X101592192Y-74530327D01*
X101734838Y-74186799D01*
X101735162Y-73814833D01*
X101593117Y-73471057D01*
X101330327Y-73207808D01*
X100986799Y-73065162D01*
X100685000Y-73064899D01*
X100685000Y-61765000D01*
X106800000Y-61765000D01*
X106684537Y-61787966D01*
X106568606Y-61808660D01*
X106563240Y-61812093D01*
X106556996Y-61813336D01*
X106459111Y-61878740D01*
X106359924Y-61942224D01*
X106356281Y-61947449D01*
X106350987Y-61950987D01*
X106285571Y-62048887D01*
X106218240Y-62145480D01*
X105106411Y-64686803D01*
X105045417Y-64698637D01*
X104832613Y-64838427D01*
X104690163Y-65049460D01*
X104640100Y-65299100D01*
X104640100Y-65699100D01*
X104664753Y-65826165D01*
X104640100Y-65949100D01*
X104640100Y-66349100D01*
X104664753Y-66476165D01*
X104640100Y-66599100D01*
X104640100Y-66999100D01*
X104664753Y-67126165D01*
X104640100Y-67249100D01*
X104640100Y-67649100D01*
X104687077Y-67891223D01*
X104826867Y-68104027D01*
X105037900Y-68246477D01*
X105287540Y-68296540D01*
X106637540Y-68296540D01*
X106879663Y-68249563D01*
X107092467Y-68109773D01*
X107234917Y-67898740D01*
X107246036Y-67843295D01*
X107394673Y-67992192D01*
X107738201Y-68134838D01*
X108110167Y-68135162D01*
X108453943Y-67993117D01*
X108717192Y-67730327D01*
X108859838Y-67386799D01*
X108860162Y-67014833D01*
X108757087Y-66765371D01*
X108792192Y-66730327D01*
X108896314Y-66479575D01*
X108996760Y-66547377D01*
X109246400Y-66597440D01*
X112746400Y-66597440D01*
X112988523Y-66550463D01*
X113201327Y-66410673D01*
X113343777Y-66199640D01*
X113393840Y-65950000D01*
X113393840Y-62450000D01*
X113346863Y-62207877D01*
X113207073Y-61995073D01*
X112996040Y-61852623D01*
X112861388Y-61825620D01*
X112843004Y-61813336D01*
X112600000Y-61765000D01*
X106800000Y-61765000D01*
X100685000Y-61765000D01*
X100685000Y-60685000D01*
X144315000Y-60685000D01*
X144315000Y-99315000D01*
X100685000Y-99315000D01*
X100685000Y-82308963D01*
X100806883Y-82603943D01*
X101069673Y-82867192D01*
X101413201Y-83009838D01*
X101708557Y-83010095D01*
X101706915Y-83018283D01*
X101062599Y-83662599D01*
X100897852Y-83909161D01*
X100840000Y-84200000D01*
X100840000Y-92400000D01*
X100897852Y-92690839D01*
X100897852Y-92690839D01*
G37*
X100897852Y-92690839D02*
X100897852Y-92690839D01*
X101062599Y-92937401D01*
X102262599Y-94137401D01*
X102509160Y-94302148D01*
X102735727Y-94347215D01*
X102839327Y-94504927D01*
X103050360Y-94647377D01*
X103300000Y-94697440D01*
X104500000Y-94697440D01*
X104742123Y-94650463D01*
X104954927Y-94510673D01*
X104999614Y-94444471D01*
X105039327Y-94504927D01*
X105250360Y-94647377D01*
X105500000Y-94697440D01*
X106700000Y-94697440D01*
X106942123Y-94650463D01*
X107154927Y-94510673D01*
X107256633Y-94360000D01*
X107952560Y-94360000D01*
X107952560Y-94400000D01*
X107999537Y-94642123D01*
X108139327Y-94854927D01*
X108350360Y-94997377D01*
X108600000Y-95047440D01*
X110600000Y-95047440D01*
X110842123Y-95000463D01*
X111054927Y-94860673D01*
X111197377Y-94649640D01*
X111247440Y-94400000D01*
X111247440Y-92800000D01*
X111200463Y-92557877D01*
X111060673Y-92345073D01*
X110849640Y-92202623D01*
X110600000Y-92152560D01*
X108600000Y-92152560D01*
X108357877Y-92199537D01*
X108145073Y-92339327D01*
X108002623Y-92550360D01*
X107952560Y-92800000D01*
X107952560Y-92840000D01*
X107255875Y-92840000D01*
X107160673Y-92695073D01*
X106949640Y-92552623D01*
X106700000Y-92502560D01*
X105500000Y-92502560D01*
X105257877Y-92549537D01*
X105045073Y-92689327D01*
X105000386Y-92755529D01*
X104960673Y-92695073D01*
X104749640Y-92552623D01*
X104500000Y-92502560D01*
X103300000Y-92502560D01*
X103057877Y-92549537D01*
X102916928Y-92642126D01*
X102360000Y-92085198D01*
X102360000Y-86424802D01*
X103227362Y-85557440D01*
X103850000Y-85557440D01*
X103891674Y-85549354D01*
X103865162Y-85613201D01*
X103865121Y-85660077D01*
X103362599Y-86162599D01*
X103197852Y-86409161D01*
X103140000Y-86700000D01*
X103140000Y-88333603D01*
X103057877Y-88349537D01*
X102845073Y-88489327D01*
X102702623Y-88700360D01*
X102652560Y-88950000D01*
X102652560Y-89850000D01*
X102699537Y-90092123D01*
X102839327Y-90304927D01*
X103050360Y-90447377D01*
X103300000Y-90497440D01*
X104500000Y-90497440D01*
X104742123Y-90450463D01*
X104954927Y-90310673D01*
X104999614Y-90244471D01*
X105039327Y-90304927D01*
X105250360Y-90447377D01*
X105500000Y-90497440D01*
X106700000Y-90497440D01*
X106942123Y-90450463D01*
X107154927Y-90310673D01*
X107256633Y-90160000D01*
X107952560Y-90160000D01*
X107952560Y-90200000D01*
X107999537Y-90442123D01*
X108139327Y-90654927D01*
X108350360Y-90797377D01*
X108600000Y-90847440D01*
X110600000Y-90847440D01*
X110842123Y-90800463D01*
X111054927Y-90660673D01*
X111197377Y-90449640D01*
X111247440Y-90200000D01*
X111247440Y-88600000D01*
X111200463Y-88357877D01*
X111060673Y-88145073D01*
X110849640Y-88002623D01*
X110600000Y-87952560D01*
X108600000Y-87952560D01*
X108357877Y-87999537D01*
X108145073Y-88139327D01*
X108002623Y-88350360D01*
X107952560Y-88600000D01*
X107952560Y-88640000D01*
X107255875Y-88640000D01*
X107160673Y-88495073D01*
X106949640Y-88352623D01*
X106700000Y-88302560D01*
X105500000Y-88302560D01*
X105257877Y-88349537D01*
X105045073Y-88489327D01*
X105000386Y-88555529D01*
X104960673Y-88495073D01*
X104749640Y-88352623D01*
X104660000Y-88334647D01*
X104660000Y-87014802D01*
X104939680Y-86735122D01*
X104985167Y-86735162D01*
X105328943Y-86593117D01*
X105592192Y-86330327D01*
X105702433Y-86064838D01*
X117014833Y-86064838D01*
X116671057Y-86206883D01*
X116407808Y-86469673D01*
X116344435Y-86622290D01*
X116130327Y-86407808D01*
X115786799Y-86265162D01*
X115414833Y-86264838D01*
X115071057Y-86406883D01*
X114807808Y-86669673D01*
X114665162Y-87013201D01*
X114664838Y-87385167D01*
X114806883Y-87728943D01*
X115069673Y-87992192D01*
X115413201Y-88134838D01*
X115460077Y-88134879D01*
X121062599Y-93737401D01*
X121309160Y-93902148D01*
X121600000Y-93960000D01*
X124234960Y-93960000D01*
X124234960Y-94317600D01*
X124281937Y-94559723D01*
X124421727Y-94772527D01*
X124632760Y-94914977D01*
X124882400Y-94965040D01*
X126760158Y-94965040D01*
X126690238Y-95034960D01*
X124882400Y-95034960D01*
X124640277Y-95081937D01*
X124427473Y-95221727D01*
X124285023Y-95432760D01*
X124234960Y-95682400D01*
X124234960Y-97917600D01*
X124281937Y-98159723D01*
X124421727Y-98372527D01*
X124632760Y-98514977D01*
X124882400Y-98565040D01*
X127117600Y-98565040D01*
X127359723Y-98518063D01*
X127572527Y-98378273D01*
X127714977Y-98167240D01*
X127765040Y-97917600D01*
X127765040Y-96109762D01*
X129337401Y-94537401D01*
X129502148Y-94290839D01*
X129560000Y-94000000D01*
X129560000Y-91600000D01*
X129502148Y-91309161D01*
X129337401Y-91062599D01*
X128337401Y-90062599D01*
X128090839Y-89897852D01*
X127800000Y-89840000D01*
X121114802Y-89840000D01*
X118135122Y-86860320D01*
X118135162Y-86814833D01*
X117993117Y-86471057D01*
X117730327Y-86207808D01*
X117386799Y-86065162D01*
X117014833Y-86064838D01*
X105702433Y-86064838D01*
X105734838Y-85986799D01*
X105735162Y-85614833D01*
X105593117Y-85271057D01*
X105330327Y-85007808D01*
X104986799Y-84865162D01*
X104614833Y-84864838D01*
X104496709Y-84913646D01*
X104497440Y-84910000D01*
X104497440Y-84310000D01*
X104450463Y-84067877D01*
X104389603Y-83975229D01*
X104447377Y-83889640D01*
X104497440Y-83640000D01*
X104497440Y-83040000D01*
X104450463Y-82797877D01*
X104389603Y-82705229D01*
X104447377Y-82619640D01*
X104497440Y-82370000D01*
X104497440Y-81835000D01*
X104599995Y-81835000D01*
X104600000Y-81835001D01*
X104996077Y-81756215D01*
X105331856Y-81531856D01*
X106731856Y-80131856D01*
X106956215Y-79796077D01*
X107035001Y-79400000D01*
X107035000Y-79399995D01*
X107035000Y-76228712D01*
X107221151Y-76042560D01*
X107750000Y-76042560D01*
X107507877Y-76089537D01*
X107295073Y-76229327D01*
X107152623Y-76440360D01*
X107102560Y-76690000D01*
X107102560Y-77290000D01*
X107149537Y-77532123D01*
X107210397Y-77624771D01*
X107152623Y-77710360D01*
X107102560Y-77960000D01*
X107102560Y-78560000D01*
X107149537Y-78802123D01*
X107210397Y-78894771D01*
X107152623Y-78980360D01*
X107102560Y-79230000D01*
X107102560Y-79830000D01*
X107149537Y-80072123D01*
X107289327Y-80284927D01*
X107500360Y-80427377D01*
X107750000Y-80477440D01*
X109250000Y-80477440D01*
X109492123Y-80430463D01*
X109704927Y-80290673D01*
X109705381Y-80290000D01*
X109767659Y-80290000D01*
X109869673Y-80392192D01*
X110213201Y-80534838D01*
X110585167Y-80535162D01*
X110928943Y-80393117D01*
X111192192Y-80130327D01*
X111210774Y-80085576D01*
X112435198Y-81310000D01*
X109703158Y-81310000D01*
X109499640Y-81172623D01*
X109250000Y-81122560D01*
X107750000Y-81122560D01*
X107507877Y-81169537D01*
X107295073Y-81309327D01*
X107152623Y-81520360D01*
X107102560Y-81770000D01*
X107102560Y-82370000D01*
X107149537Y-82612123D01*
X107210397Y-82704771D01*
X107152623Y-82790360D01*
X107102560Y-83040000D01*
X107102560Y-83640000D01*
X107149537Y-83882123D01*
X107210397Y-83974771D01*
X107152623Y-84060360D01*
X107102560Y-84310000D01*
X107102560Y-84910000D01*
X107149537Y-85152123D01*
X107289327Y-85364927D01*
X107500360Y-85507377D01*
X107750000Y-85557440D01*
X109250000Y-85557440D01*
X109492123Y-85510463D01*
X109704927Y-85370673D01*
X109705381Y-85370000D01*
X109847520Y-85370000D01*
X109869673Y-85392192D01*
X110213201Y-85534838D01*
X110585167Y-85535162D01*
X110928943Y-85393117D01*
X111192192Y-85130327D01*
X111269455Y-84944257D01*
X112062599Y-85737401D01*
X112309160Y-85902148D01*
X112600000Y-85960000D01*
X124234960Y-85960000D01*
X124234960Y-86317600D01*
X124281937Y-86559723D01*
X124421727Y-86772527D01*
X124632760Y-86914977D01*
X124882400Y-86965040D01*
X127117600Y-86965040D01*
X127359723Y-86918063D01*
X127572527Y-86778273D01*
X127714977Y-86567240D01*
X127765040Y-86317600D01*
X127765040Y-84082400D01*
X127718063Y-83840277D01*
X127578273Y-83627473D01*
X127367240Y-83485023D01*
X127117600Y-83434960D01*
X124882400Y-83434960D01*
X124640277Y-83481937D01*
X124427473Y-83621727D01*
X124285023Y-83832760D01*
X124234960Y-84082400D01*
X124234960Y-84440000D01*
X112914802Y-84440000D01*
X111304802Y-82830000D01*
X124256768Y-82830000D01*
X124281937Y-82959723D01*
X124421727Y-83172527D01*
X124632760Y-83314977D01*
X124882400Y-83365040D01*
X127117600Y-83365040D01*
X127359723Y-83318063D01*
X127572527Y-83178273D01*
X127714977Y-82967240D01*
X127765040Y-82717600D01*
X127765040Y-80482400D01*
X127718063Y-80240277D01*
X127578273Y-80027473D01*
X127367240Y-79885023D01*
X127117600Y-79834960D01*
X124882400Y-79834960D01*
X124640277Y-79881937D01*
X124427473Y-80021727D01*
X124285023Y-80232760D01*
X124234960Y-80482400D01*
X124234960Y-81310000D01*
X114334905Y-81310000D01*
X114335162Y-81014833D01*
X114193117Y-80671057D01*
X113930327Y-80407808D01*
X113586799Y-80265162D01*
X113539923Y-80265121D01*
X112793782Y-79518980D01*
X113000000Y-79560000D01*
X139885198Y-79560000D01*
X142240000Y-81914802D01*
X142240000Y-82121441D01*
X142178273Y-82027473D01*
X141967240Y-81885023D01*
X141717600Y-81834960D01*
X139482400Y-81834960D01*
X139240277Y-81881937D01*
X139027473Y-82021727D01*
X138885023Y-82232760D01*
X138834960Y-82482400D01*
X138834960Y-84717600D01*
X138863013Y-84862185D01*
X136060320Y-87664878D01*
X136014833Y-87664838D01*
X135671057Y-87806883D01*
X135407808Y-88069673D01*
X135265162Y-88413201D01*
X135264838Y-88785167D01*
X135406883Y-89128943D01*
X135669673Y-89392192D01*
X136013201Y-89534838D01*
X136385167Y-89535162D01*
X136728943Y-89393117D01*
X136992192Y-89130327D01*
X137134838Y-88786799D01*
X137134879Y-88739923D01*
X140509762Y-85365040D01*
X141717600Y-85365040D01*
X141959723Y-85318063D01*
X142172527Y-85178273D01*
X142240000Y-85078315D01*
X142240000Y-92485198D01*
X141290238Y-93434960D01*
X139482400Y-93434960D01*
X139240277Y-93481937D01*
X139027473Y-93621727D01*
X138885023Y-93832760D01*
X138834960Y-94082400D01*
X138834960Y-96317600D01*
X138881937Y-96559723D01*
X139021727Y-96772527D01*
X139232760Y-96914977D01*
X139482400Y-96965040D01*
X141717600Y-96965040D01*
X141959723Y-96918063D01*
X142172527Y-96778273D01*
X142314977Y-96567240D01*
X142365040Y-96317600D01*
X142365040Y-94509762D01*
X143537401Y-93337401D01*
X143702148Y-93090839D01*
X143760000Y-92800000D01*
X143760000Y-81600000D01*
X143702148Y-81309161D01*
X143537401Y-81062599D01*
X140737401Y-78262599D01*
X140490839Y-78097852D01*
X140200000Y-78040000D01*
X113314802Y-78040000D01*
X111727401Y-76452599D01*
X111480839Y-76287852D01*
X111190000Y-76230000D01*
X109703158Y-76230000D01*
X109499640Y-76092623D01*
X109250000Y-76042560D01*
X107750000Y-76042560D01*
X107221151Y-76042560D01*
X110053711Y-73210000D01*
X126577703Y-73210000D01*
X126689327Y-73379927D01*
X126900360Y-73522377D01*
X127150000Y-73572440D01*
X128400000Y-73572440D01*
X128642123Y-73525463D01*
X128854927Y-73385673D01*
X128973509Y-73210000D01*
X130649193Y-73210000D01*
X130811993Y-73373084D01*
X131321064Y-73584469D01*
X131872278Y-73584950D01*
X132381717Y-73374454D01*
X132771824Y-72985027D01*
X132983209Y-72475956D01*
X132983690Y-71924742D01*
X132773194Y-71415303D01*
X132383767Y-71025196D01*
X132152499Y-70929165D01*
X132381717Y-70834454D01*
X132771824Y-70445027D01*
X132983209Y-69935956D01*
X132983690Y-69384742D01*
X132773194Y-68875303D01*
X132541373Y-68643077D01*
X132771824Y-68413027D01*
X132983209Y-67903956D01*
X132983690Y-67352742D01*
X132773194Y-66843303D01*
X132383767Y-66453196D01*
X131874696Y-66241811D01*
X131323482Y-66241330D01*
X130814043Y-66451826D01*
X130423936Y-66841253D01*
X130212551Y-67350324D01*
X130212070Y-67901538D01*
X130422566Y-68410977D01*
X130654387Y-68643203D01*
X130423936Y-68873253D01*
X130212551Y-69382324D01*
X130212070Y-69933538D01*
X130422566Y-70442977D01*
X130811993Y-70833084D01*
X131043261Y-70929115D01*
X130814043Y-71023826D01*
X130697666Y-71140000D01*
X128972297Y-71140000D01*
X128860673Y-70970073D01*
X128649640Y-70827623D01*
X128400000Y-70777560D01*
X127150000Y-70777560D01*
X126907877Y-70824537D01*
X126695073Y-70964327D01*
X126576491Y-71140000D01*
X123203711Y-71140000D01*
X118838600Y-66774888D01*
X118838600Y-66597440D01*
X119553600Y-66597440D01*
X119795723Y-66550463D01*
X120008527Y-66410673D01*
X120150977Y-66199640D01*
X120201040Y-65950000D01*
X120201040Y-62450000D01*
X120154063Y-62207877D01*
X120014273Y-61995073D01*
X119803240Y-61852623D01*
X119553600Y-61802560D01*
X116053600Y-61802560D01*
X115811477Y-61849537D01*
X115598673Y-61989327D01*
X115456223Y-62200360D01*
X115406160Y-62450000D01*
X115406160Y-65950000D01*
X115453137Y-66192123D01*
X115592927Y-66404927D01*
X115803960Y-66547377D01*
X116053600Y-66597440D01*
X116768600Y-66597440D01*
X116768600Y-67203595D01*
X116768599Y-67203600D01*
X116847385Y-67599677D01*
X117071744Y-67935456D01*
X120276289Y-71140000D01*
X109625005Y-71140000D01*
X109625000Y-71139999D01*
X109228923Y-71218785D01*
X108893144Y-71443144D01*
X108893142Y-71443147D01*
X105268144Y-75068144D01*
X105043785Y-75403923D01*
X104964999Y-75800000D01*
X104965000Y-75800005D01*
X104965000Y-76665143D01*
X104939923Y-76665121D01*
X104727401Y-76452599D01*
X104480839Y-76287852D01*
X104324978Y-76256849D01*
X104310673Y-76235073D01*
X104099640Y-76092623D01*
X103850000Y-76042560D01*
X102350000Y-76042560D01*
X102107877Y-76089537D01*
X101895073Y-76229327D01*
X101752623Y-76440360D01*
X101702560Y-76690000D01*
X101702560Y-77290000D01*
X101749537Y-77532123D01*
X101810397Y-77624771D01*
X101752623Y-77710360D01*
X101702560Y-77960000D01*
X101702560Y-78227758D01*
X101560000Y-78085198D01*
X101560000Y-74562463D01*
X101592192Y-74530327D01*
X101734838Y-74186799D01*
X101735162Y-73814833D01*
X101593117Y-73471057D01*
X101330327Y-73207808D01*
X100986799Y-73065162D01*
X100685000Y-73064899D01*
X100685000Y-61765000D01*
X106800000Y-61765000D01*
X106684537Y-61787966D01*
X106568606Y-61808660D01*
X106563240Y-61812093D01*
X106556996Y-61813336D01*
X106459111Y-61878740D01*
X106359924Y-61942224D01*
X106356281Y-61947449D01*
X106350987Y-61950987D01*
X106285571Y-62048887D01*
X106218240Y-62145480D01*
X105106411Y-64686803D01*
X105045417Y-64698637D01*
X104832613Y-64838427D01*
X104690163Y-65049460D01*
X104640100Y-65299100D01*
X104640100Y-65699100D01*
X104664753Y-65826165D01*
X104640100Y-65949100D01*
X104640100Y-66349100D01*
X104664753Y-66476165D01*
X104640100Y-66599100D01*
X104640100Y-66999100D01*
X104664753Y-67126165D01*
X104640100Y-67249100D01*
X104640100Y-67649100D01*
X104687077Y-67891223D01*
X104826867Y-68104027D01*
X105037900Y-68246477D01*
X105287540Y-68296540D01*
X106637540Y-68296540D01*
X106879663Y-68249563D01*
X107092467Y-68109773D01*
X107234917Y-67898740D01*
X107246036Y-67843295D01*
X107394673Y-67992192D01*
X107738201Y-68134838D01*
X108110167Y-68135162D01*
X108453943Y-67993117D01*
X108717192Y-67730327D01*
X108859838Y-67386799D01*
X108860162Y-67014833D01*
X108757087Y-66765371D01*
X108792192Y-66730327D01*
X108896314Y-66479575D01*
X108996760Y-66547377D01*
X109246400Y-66597440D01*
X112746400Y-66597440D01*
X112988523Y-66550463D01*
X113201327Y-66410673D01*
X113343777Y-66199640D01*
X113393840Y-65950000D01*
X113393840Y-62450000D01*
X113346863Y-62207877D01*
X113207073Y-61995073D01*
X112996040Y-61852623D01*
X112861388Y-61825620D01*
X112843004Y-61813336D01*
X112600000Y-61765000D01*
X106800000Y-61765000D01*
X100685000Y-61765000D01*
X100685000Y-60685000D01*
X144315000Y-60685000D01*
X144315000Y-99315000D01*
X100685000Y-99315000D01*
X100685000Y-82308963D01*
X100806883Y-82603943D01*
X101069673Y-82867192D01*
X101413201Y-83009838D01*
X101708557Y-83010095D01*
X101706915Y-83018283D01*
X101062599Y-83662599D01*
X100897852Y-83909161D01*
X100840000Y-84200000D01*
X100840000Y-92400000D01*
X100897852Y-92690839D01*
M02*
