G04 #@! TF.FileFunction,Legend,Top*
%FSLAX46Y46*%
G04 Gerber Fmt 4.6, Leading zero omitted, Abs format (unit mm)*
G04 Created by KiCad (PCBNEW (2015-06-20 BZR 5796, Git fe7bc27)-product) date 22.6.2015 5:54:44*
%MOMM*%
G01*
G04 APERTURE LIST*
%ADD10C,0.100000*%
%ADD11C,0.150000*%
%ADD12C,0.300000*%
%ADD13C,0.200000*%
%ADD14C,0.250000*%
%ADD15C,0.002540*%
G04 APERTURE END LIST*
D10*
D11*
X100734525Y-98694048D02*
X100734525Y-98044048D01*
X101013096Y-98694048D02*
X101013096Y-98353571D01*
X100982144Y-98291667D01*
X100920239Y-98260714D01*
X100827382Y-98260714D01*
X100765477Y-98291667D01*
X100734525Y-98322619D01*
X101229763Y-98260714D02*
X101477382Y-98260714D01*
X101322620Y-98044048D02*
X101322620Y-98601190D01*
X101353572Y-98663095D01*
X101415477Y-98694048D01*
X101477382Y-98694048D01*
X101601192Y-98260714D02*
X101848811Y-98260714D01*
X101694049Y-98044048D02*
X101694049Y-98601190D01*
X101725001Y-98663095D01*
X101786906Y-98694048D01*
X101848811Y-98694048D01*
X102065478Y-98260714D02*
X102065478Y-98910714D01*
X102065478Y-98291667D02*
X102127383Y-98260714D01*
X102251192Y-98260714D01*
X102313097Y-98291667D01*
X102344049Y-98322619D01*
X102375002Y-98384524D01*
X102375002Y-98570238D01*
X102344049Y-98632143D01*
X102313097Y-98663095D01*
X102251192Y-98694048D01*
X102127383Y-98694048D01*
X102065478Y-98663095D01*
X102653573Y-98632143D02*
X102684525Y-98663095D01*
X102653573Y-98694048D01*
X102622621Y-98663095D01*
X102653573Y-98632143D01*
X102653573Y-98694048D01*
X102653573Y-98291667D02*
X102684525Y-98322619D01*
X102653573Y-98353571D01*
X102622621Y-98322619D01*
X102653573Y-98291667D01*
X102653573Y-98353571D01*
X103427383Y-98013095D02*
X102870240Y-98848810D01*
X104108335Y-98013095D02*
X103551192Y-98848810D01*
X104603572Y-98260714D02*
X104603572Y-98786905D01*
X104572620Y-98848810D01*
X104541668Y-98879762D01*
X104479763Y-98910714D01*
X104386906Y-98910714D01*
X104325001Y-98879762D01*
X104603572Y-98663095D02*
X104541668Y-98694048D01*
X104417858Y-98694048D01*
X104355953Y-98663095D01*
X104325001Y-98632143D01*
X104294049Y-98570238D01*
X104294049Y-98384524D01*
X104325001Y-98322619D01*
X104355953Y-98291667D01*
X104417858Y-98260714D01*
X104541668Y-98260714D01*
X104603572Y-98291667D01*
X104913096Y-98694048D02*
X104913096Y-98260714D01*
X104913096Y-98044048D02*
X104882144Y-98075000D01*
X104913096Y-98105952D01*
X104944048Y-98075000D01*
X104913096Y-98044048D01*
X104913096Y-98105952D01*
X105129763Y-98260714D02*
X105377382Y-98260714D01*
X105222620Y-98044048D02*
X105222620Y-98601190D01*
X105253572Y-98663095D01*
X105315477Y-98694048D01*
X105377382Y-98694048D01*
X105594049Y-98694048D02*
X105594049Y-98044048D01*
X105872620Y-98694048D02*
X105872620Y-98353571D01*
X105841668Y-98291667D01*
X105779763Y-98260714D01*
X105686906Y-98260714D01*
X105625001Y-98291667D01*
X105594049Y-98322619D01*
X106460715Y-98260714D02*
X106460715Y-98694048D01*
X106182144Y-98260714D02*
X106182144Y-98601190D01*
X106213096Y-98663095D01*
X106275001Y-98694048D01*
X106367858Y-98694048D01*
X106429763Y-98663095D01*
X106460715Y-98632143D01*
X106770239Y-98694048D02*
X106770239Y-98044048D01*
X106770239Y-98291667D02*
X106832144Y-98260714D01*
X106955953Y-98260714D01*
X107017858Y-98291667D01*
X107048810Y-98322619D01*
X107079763Y-98384524D01*
X107079763Y-98570238D01*
X107048810Y-98632143D01*
X107017858Y-98663095D01*
X106955953Y-98694048D01*
X106832144Y-98694048D01*
X106770239Y-98663095D01*
X107358334Y-98632143D02*
X107389286Y-98663095D01*
X107358334Y-98694048D01*
X107327382Y-98663095D01*
X107358334Y-98632143D01*
X107358334Y-98694048D01*
X107946429Y-98663095D02*
X107884525Y-98694048D01*
X107760715Y-98694048D01*
X107698810Y-98663095D01*
X107667858Y-98632143D01*
X107636906Y-98570238D01*
X107636906Y-98384524D01*
X107667858Y-98322619D01*
X107698810Y-98291667D01*
X107760715Y-98260714D01*
X107884525Y-98260714D01*
X107946429Y-98291667D01*
X108317858Y-98694048D02*
X108255953Y-98663095D01*
X108225001Y-98632143D01*
X108194049Y-98570238D01*
X108194049Y-98384524D01*
X108225001Y-98322619D01*
X108255953Y-98291667D01*
X108317858Y-98260714D01*
X108410715Y-98260714D01*
X108472620Y-98291667D01*
X108503572Y-98322619D01*
X108534525Y-98384524D01*
X108534525Y-98570238D01*
X108503572Y-98632143D01*
X108472620Y-98663095D01*
X108410715Y-98694048D01*
X108317858Y-98694048D01*
X108813096Y-98694048D02*
X108813096Y-98260714D01*
X108813096Y-98322619D02*
X108844048Y-98291667D01*
X108905953Y-98260714D01*
X108998810Y-98260714D01*
X109060715Y-98291667D01*
X109091667Y-98353571D01*
X109091667Y-98694048D01*
X109091667Y-98353571D02*
X109122620Y-98291667D01*
X109184524Y-98260714D01*
X109277382Y-98260714D01*
X109339286Y-98291667D01*
X109370239Y-98353571D01*
X109370239Y-98694048D01*
X110144049Y-98013095D02*
X109586906Y-98848810D01*
X110267858Y-98044048D02*
X110639286Y-98044048D01*
X110453572Y-98694048D02*
X110453572Y-98044048D01*
X110855953Y-98694048D02*
X110855953Y-98044048D01*
X111134524Y-98694048D02*
X111134524Y-98353571D01*
X111103572Y-98291667D01*
X111041667Y-98260714D01*
X110948810Y-98260714D01*
X110886905Y-98291667D01*
X110855953Y-98322619D01*
X111691667Y-98663095D02*
X111629762Y-98694048D01*
X111505953Y-98694048D01*
X111444048Y-98663095D01*
X111413096Y-98601190D01*
X111413096Y-98353571D01*
X111444048Y-98291667D01*
X111505953Y-98260714D01*
X111629762Y-98260714D01*
X111691667Y-98291667D01*
X111722619Y-98353571D01*
X111722619Y-98415476D01*
X111413096Y-98477381D01*
X112001191Y-98694048D02*
X112001191Y-98044048D01*
X112372619Y-98694048D01*
X112372619Y-98044048D01*
X112682143Y-98694048D02*
X112682143Y-98260714D01*
X112682143Y-98044048D02*
X112651191Y-98075000D01*
X112682143Y-98105952D01*
X112713095Y-98075000D01*
X112682143Y-98044048D01*
X112682143Y-98105952D01*
X112991667Y-98694048D02*
X112991667Y-98044048D01*
X113053572Y-98446429D02*
X113239286Y-98694048D01*
X113239286Y-98260714D02*
X112991667Y-98508333D01*
X113610714Y-98694048D02*
X113548809Y-98663095D01*
X113517857Y-98632143D01*
X113486905Y-98570238D01*
X113486905Y-98384524D01*
X113517857Y-98322619D01*
X113548809Y-98291667D01*
X113610714Y-98260714D01*
X113703571Y-98260714D01*
X113765476Y-98291667D01*
X113796428Y-98322619D01*
X113827381Y-98384524D01*
X113827381Y-98570238D01*
X113796428Y-98632143D01*
X113765476Y-98663095D01*
X113703571Y-98694048D01*
X113610714Y-98694048D01*
X114105952Y-98694048D02*
X114105952Y-98260714D01*
X114105952Y-98322619D02*
X114136904Y-98291667D01*
X114198809Y-98260714D01*
X114291666Y-98260714D01*
X114353571Y-98291667D01*
X114384523Y-98353571D01*
X114384523Y-98694048D01*
X114384523Y-98353571D02*
X114415476Y-98291667D01*
X114477380Y-98260714D01*
X114570238Y-98260714D01*
X114632142Y-98291667D01*
X114663095Y-98353571D01*
X114663095Y-98694048D01*
X115065476Y-98694048D02*
X115003571Y-98663095D01*
X114972619Y-98632143D01*
X114941667Y-98570238D01*
X114941667Y-98384524D01*
X114972619Y-98322619D01*
X115003571Y-98291667D01*
X115065476Y-98260714D01*
X115158333Y-98260714D01*
X115220238Y-98291667D01*
X115251190Y-98322619D01*
X115282143Y-98384524D01*
X115282143Y-98570238D01*
X115251190Y-98632143D01*
X115220238Y-98663095D01*
X115158333Y-98694048D01*
X115065476Y-98694048D01*
X116025000Y-98013095D02*
X115467857Y-98848810D01*
X116520237Y-98260714D02*
X116520237Y-98694048D01*
X116241666Y-98260714D02*
X116241666Y-98601190D01*
X116272618Y-98663095D01*
X116334523Y-98694048D01*
X116427380Y-98694048D01*
X116489285Y-98663095D01*
X116520237Y-98632143D01*
X116798809Y-98663095D02*
X116860713Y-98694048D01*
X116984523Y-98694048D01*
X117046428Y-98663095D01*
X117077380Y-98601190D01*
X117077380Y-98570238D01*
X117046428Y-98508333D01*
X116984523Y-98477381D01*
X116891666Y-98477381D01*
X116829761Y-98446429D01*
X116798809Y-98384524D01*
X116798809Y-98353571D01*
X116829761Y-98291667D01*
X116891666Y-98260714D01*
X116984523Y-98260714D01*
X117046428Y-98291667D01*
X117355951Y-98694048D02*
X117355951Y-98044048D01*
X117355951Y-98291667D02*
X117417856Y-98260714D01*
X117541665Y-98260714D01*
X117603570Y-98291667D01*
X117634522Y-98322619D01*
X117665475Y-98384524D01*
X117665475Y-98570238D01*
X117634522Y-98632143D01*
X117603570Y-98663095D01*
X117541665Y-98694048D01*
X117417856Y-98694048D01*
X117355951Y-98663095D01*
X117944046Y-98446429D02*
X118439284Y-98446429D01*
X118748808Y-98260714D02*
X118748808Y-98910714D01*
X118748808Y-98291667D02*
X118810713Y-98260714D01*
X118934522Y-98260714D01*
X118996427Y-98291667D01*
X119027379Y-98322619D01*
X119058332Y-98384524D01*
X119058332Y-98570238D01*
X119027379Y-98632143D01*
X118996427Y-98663095D01*
X118934522Y-98694048D01*
X118810713Y-98694048D01*
X118748808Y-98663095D01*
X119336903Y-98694048D02*
X119336903Y-98260714D01*
X119336903Y-98384524D02*
X119367855Y-98322619D01*
X119398808Y-98291667D01*
X119460712Y-98260714D01*
X119522617Y-98260714D01*
X119832141Y-98694048D02*
X119770236Y-98663095D01*
X119739284Y-98632143D01*
X119708332Y-98570238D01*
X119708332Y-98384524D01*
X119739284Y-98322619D01*
X119770236Y-98291667D01*
X119832141Y-98260714D01*
X119924998Y-98260714D01*
X119986903Y-98291667D01*
X120017855Y-98322619D01*
X120048808Y-98384524D01*
X120048808Y-98570238D01*
X120017855Y-98632143D01*
X119986903Y-98663095D01*
X119924998Y-98694048D01*
X119832141Y-98694048D01*
X120234522Y-98260714D02*
X120482141Y-98260714D01*
X120327379Y-98044048D02*
X120327379Y-98601190D01*
X120358331Y-98663095D01*
X120420236Y-98694048D01*
X120482141Y-98694048D01*
X120946427Y-98663095D02*
X120884522Y-98694048D01*
X120760713Y-98694048D01*
X120698808Y-98663095D01*
X120667856Y-98601190D01*
X120667856Y-98353571D01*
X120698808Y-98291667D01*
X120760713Y-98260714D01*
X120884522Y-98260714D01*
X120946427Y-98291667D01*
X120977379Y-98353571D01*
X120977379Y-98415476D01*
X120667856Y-98477381D01*
X121534522Y-98663095D02*
X121472618Y-98694048D01*
X121348808Y-98694048D01*
X121286903Y-98663095D01*
X121255951Y-98632143D01*
X121224999Y-98570238D01*
X121224999Y-98384524D01*
X121255951Y-98322619D01*
X121286903Y-98291667D01*
X121348808Y-98260714D01*
X121472618Y-98260714D01*
X121534522Y-98291667D01*
X121720237Y-98260714D02*
X121967856Y-98260714D01*
X121813094Y-98044048D02*
X121813094Y-98601190D01*
X121844046Y-98663095D01*
X121905951Y-98694048D01*
X121967856Y-98694048D01*
X122277380Y-98694048D02*
X122215475Y-98663095D01*
X122184523Y-98632143D01*
X122153571Y-98570238D01*
X122153571Y-98384524D01*
X122184523Y-98322619D01*
X122215475Y-98291667D01*
X122277380Y-98260714D01*
X122370237Y-98260714D01*
X122432142Y-98291667D01*
X122463094Y-98322619D01*
X122494047Y-98384524D01*
X122494047Y-98570238D01*
X122463094Y-98632143D01*
X122432142Y-98663095D01*
X122370237Y-98694048D01*
X122277380Y-98694048D01*
X122772618Y-98694048D02*
X122772618Y-98260714D01*
X122772618Y-98384524D02*
X122803570Y-98322619D01*
X122834523Y-98291667D01*
X122896427Y-98260714D01*
X122958332Y-98260714D01*
D12*
X100857143Y-97142857D02*
X100857143Y-95942857D01*
X101542858Y-97142857D01*
X101542858Y-95942857D01*
X102114286Y-97142857D02*
X102114286Y-96342857D01*
X102114286Y-95942857D02*
X102057143Y-96000000D01*
X102114286Y-96057143D01*
X102171429Y-96000000D01*
X102114286Y-95942857D01*
X102114286Y-96057143D01*
X102685715Y-97142857D02*
X102685715Y-95942857D01*
X102800001Y-96685714D02*
X103142858Y-97142857D01*
X103142858Y-96342857D02*
X102685715Y-96800000D01*
X103828573Y-97142857D02*
X103714287Y-97085714D01*
X103657144Y-97028571D01*
X103600001Y-96914286D01*
X103600001Y-96571429D01*
X103657144Y-96457143D01*
X103714287Y-96400000D01*
X103828573Y-96342857D01*
X104000001Y-96342857D01*
X104114287Y-96400000D01*
X104171430Y-96457143D01*
X104228573Y-96571429D01*
X104228573Y-96914286D01*
X104171430Y-97028571D01*
X104114287Y-97085714D01*
X104000001Y-97142857D01*
X103828573Y-97142857D01*
X105600001Y-95942857D02*
X105600001Y-96171429D01*
X106057144Y-95942857D02*
X106057144Y-96171429D01*
X106571430Y-96342857D02*
X106571430Y-97142857D01*
X106571430Y-96457143D02*
X106628573Y-96400000D01*
X106742859Y-96342857D01*
X106914287Y-96342857D01*
X107028573Y-96400000D01*
X107085716Y-96514286D01*
X107085716Y-97142857D01*
X107657144Y-97142857D02*
X107657144Y-96342857D01*
X107657144Y-95942857D02*
X107600001Y-96000000D01*
X107657144Y-96057143D01*
X107714287Y-96000000D01*
X107657144Y-95942857D01*
X107657144Y-96057143D01*
X108228573Y-97142857D02*
X108228573Y-95942857D01*
X108342859Y-96685714D02*
X108685716Y-97142857D01*
X108685716Y-96342857D02*
X108228573Y-96800000D01*
X109371431Y-97142857D02*
X109257145Y-97085714D01*
X109200002Y-97028571D01*
X109142859Y-96914286D01*
X109142859Y-96571429D01*
X109200002Y-96457143D01*
X109257145Y-96400000D01*
X109371431Y-96342857D01*
X109542859Y-96342857D01*
X109657145Y-96400000D01*
X109714288Y-96457143D01*
X109771431Y-96571429D01*
X109771431Y-96914286D01*
X109714288Y-97028571D01*
X109657145Y-97085714D01*
X109542859Y-97142857D01*
X109371431Y-97142857D01*
X110285716Y-97142857D02*
X110285716Y-96342857D01*
X110285716Y-96457143D02*
X110342859Y-96400000D01*
X110457145Y-96342857D01*
X110628573Y-96342857D01*
X110742859Y-96400000D01*
X110800002Y-96514286D01*
X110800002Y-97142857D01*
X110800002Y-96514286D02*
X110857145Y-96400000D01*
X110971431Y-96342857D01*
X111142859Y-96342857D01*
X111257145Y-96400000D01*
X111314288Y-96514286D01*
X111314288Y-97142857D01*
X112057145Y-97142857D02*
X111942859Y-97085714D01*
X111885716Y-97028571D01*
X111828573Y-96914286D01*
X111828573Y-96571429D01*
X111885716Y-96457143D01*
X111942859Y-96400000D01*
X112057145Y-96342857D01*
X112228573Y-96342857D01*
X112342859Y-96400000D01*
X112400002Y-96457143D01*
X112457145Y-96571429D01*
X112457145Y-96914286D01*
X112400002Y-97028571D01*
X112342859Y-97085714D01*
X112228573Y-97142857D01*
X112057145Y-97142857D01*
X112914287Y-95942857D02*
X112914287Y-96171429D01*
X113371430Y-95942857D02*
X113371430Y-96171429D01*
X114800002Y-97142857D02*
X114800002Y-95942857D01*
X115200002Y-96800000D01*
X115600002Y-95942857D01*
X115600002Y-97142857D01*
X116342860Y-97142857D02*
X116228574Y-97085714D01*
X116171431Y-97028571D01*
X116114288Y-96914286D01*
X116114288Y-96571429D01*
X116171431Y-96457143D01*
X116228574Y-96400000D01*
X116342860Y-96342857D01*
X116514288Y-96342857D01*
X116628574Y-96400000D01*
X116685717Y-96457143D01*
X116742860Y-96571429D01*
X116742860Y-96914286D01*
X116685717Y-97028571D01*
X116628574Y-97085714D01*
X116514288Y-97142857D01*
X116342860Y-97142857D01*
X117257145Y-96342857D02*
X117257145Y-97142857D01*
X117257145Y-96457143D02*
X117314288Y-96400000D01*
X117428574Y-96342857D01*
X117600002Y-96342857D01*
X117714288Y-96400000D01*
X117771431Y-96514286D01*
X117771431Y-97142857D01*
X118171431Y-96342857D02*
X118628574Y-96342857D01*
X118342859Y-95942857D02*
X118342859Y-96971429D01*
X118400002Y-97085714D01*
X118514288Y-97142857D01*
X118628574Y-97142857D01*
X119200002Y-97142857D02*
X119085716Y-97085714D01*
X119028573Y-97028571D01*
X118971430Y-96914286D01*
X118971430Y-96571429D01*
X119028573Y-96457143D01*
X119085716Y-96400000D01*
X119200002Y-96342857D01*
X119371430Y-96342857D01*
X119485716Y-96400000D01*
X119542859Y-96457143D01*
X119600002Y-96571429D01*
X119600002Y-96914286D01*
X119542859Y-97028571D01*
X119485716Y-97085714D01*
X119371430Y-97142857D01*
X119200002Y-97142857D01*
X120114287Y-96342857D02*
X120114287Y-97142857D01*
X120114287Y-96457143D02*
X120171430Y-96400000D01*
X120285716Y-96342857D01*
X120457144Y-96342857D01*
X120571430Y-96400000D01*
X120628573Y-96514286D01*
X120628573Y-97142857D01*
X121657144Y-97085714D02*
X121542858Y-97142857D01*
X121314287Y-97142857D01*
X121200001Y-97085714D01*
X121142858Y-96971429D01*
X121142858Y-96514286D01*
X121200001Y-96400000D01*
X121314287Y-96342857D01*
X121542858Y-96342857D01*
X121657144Y-96400000D01*
X121714287Y-96514286D01*
X121714287Y-96628571D01*
X121142858Y-96742857D01*
X122228572Y-96342857D02*
X122228572Y-97142857D01*
X122228572Y-96457143D02*
X122285715Y-96400000D01*
X122400001Y-96342857D01*
X122571429Y-96342857D01*
X122685715Y-96400000D01*
X122742858Y-96514286D01*
X122742858Y-97142857D01*
X110428572Y-74214286D02*
X110428572Y-75671429D01*
X110514287Y-75842857D01*
X110600001Y-75928571D01*
X110771430Y-76014286D01*
X111114287Y-76014286D01*
X111285715Y-75928571D01*
X111371430Y-75842857D01*
X111457144Y-75671429D01*
X111457144Y-74214286D01*
X112228572Y-75928571D02*
X112485715Y-76014286D01*
X112914286Y-76014286D01*
X113085715Y-75928571D01*
X113171429Y-75842857D01*
X113257144Y-75671429D01*
X113257144Y-75500000D01*
X113171429Y-75328571D01*
X113085715Y-75242857D01*
X112914286Y-75157143D01*
X112571429Y-75071429D01*
X112400001Y-74985714D01*
X112314286Y-74900000D01*
X112228572Y-74728571D01*
X112228572Y-74557143D01*
X112314286Y-74385714D01*
X112400001Y-74300000D01*
X112571429Y-74214286D01*
X113000001Y-74214286D01*
X113257144Y-74300000D01*
X114628572Y-75071429D02*
X114885715Y-75157143D01*
X114971430Y-75242857D01*
X115057144Y-75414286D01*
X115057144Y-75671429D01*
X114971430Y-75842857D01*
X114885715Y-75928571D01*
X114714287Y-76014286D01*
X114028572Y-76014286D01*
X114028572Y-74214286D01*
X114628572Y-74214286D01*
X114800001Y-74300000D01*
X114885715Y-74385714D01*
X114971430Y-74557143D01*
X114971430Y-74728571D01*
X114885715Y-74900000D01*
X114800001Y-74985714D01*
X114628572Y-75071429D01*
X114028572Y-75071429D01*
X117200001Y-76014286D02*
X117200001Y-74214286D01*
X117885716Y-74214286D01*
X118057144Y-74300000D01*
X118142859Y-74385714D01*
X118228573Y-74557143D01*
X118228573Y-74814286D01*
X118142859Y-74985714D01*
X118057144Y-75071429D01*
X117885716Y-75157143D01*
X117200001Y-75157143D01*
X119000001Y-76014286D02*
X119000001Y-74814286D01*
X119000001Y-75157143D02*
X119085716Y-74985714D01*
X119171430Y-74900000D01*
X119342859Y-74814286D01*
X119514287Y-74814286D01*
X120371430Y-76014286D02*
X120200002Y-75928571D01*
X120114287Y-75842857D01*
X120028573Y-75671429D01*
X120028573Y-75157143D01*
X120114287Y-74985714D01*
X120200002Y-74900000D01*
X120371430Y-74814286D01*
X120628573Y-74814286D01*
X120800002Y-74900000D01*
X120885716Y-74985714D01*
X120971430Y-75157143D01*
X120971430Y-75671429D01*
X120885716Y-75842857D01*
X120800002Y-75928571D01*
X120628573Y-76014286D01*
X120371430Y-76014286D01*
X121485716Y-74814286D02*
X122171430Y-74814286D01*
X121742858Y-74214286D02*
X121742858Y-75757143D01*
X121828573Y-75928571D01*
X122000001Y-76014286D01*
X122171430Y-76014286D01*
X123457144Y-75928571D02*
X123285715Y-76014286D01*
X122942858Y-76014286D01*
X122771429Y-75928571D01*
X122685715Y-75757143D01*
X122685715Y-75071429D01*
X122771429Y-74900000D01*
X122942858Y-74814286D01*
X123285715Y-74814286D01*
X123457144Y-74900000D01*
X123542858Y-75071429D01*
X123542858Y-75242857D01*
X122685715Y-75414286D01*
X125085715Y-75928571D02*
X124914286Y-76014286D01*
X124571429Y-76014286D01*
X124400001Y-75928571D01*
X124314286Y-75842857D01*
X124228572Y-75671429D01*
X124228572Y-75157143D01*
X124314286Y-74985714D01*
X124400001Y-74900000D01*
X124571429Y-74814286D01*
X124914286Y-74814286D01*
X125085715Y-74900000D01*
X125600001Y-74814286D02*
X126285715Y-74814286D01*
X125857143Y-74214286D02*
X125857143Y-75757143D01*
X125942858Y-75928571D01*
X126114286Y-76014286D01*
X126285715Y-76014286D01*
X127142857Y-76014286D02*
X126971429Y-75928571D01*
X126885714Y-75842857D01*
X126800000Y-75671429D01*
X126800000Y-75157143D01*
X126885714Y-74985714D01*
X126971429Y-74900000D01*
X127142857Y-74814286D01*
X127400000Y-74814286D01*
X127571429Y-74900000D01*
X127657143Y-74985714D01*
X127742857Y-75157143D01*
X127742857Y-75671429D01*
X127657143Y-75842857D01*
X127571429Y-75928571D01*
X127400000Y-76014286D01*
X127142857Y-76014286D01*
X128514285Y-76014286D02*
X128514285Y-74814286D01*
X128514285Y-75157143D02*
X128600000Y-74985714D01*
X128685714Y-74900000D01*
X128857143Y-74814286D01*
X129028571Y-74814286D01*
D13*
X140600000Y-83600000D02*
X137800000Y-83600000D01*
X129400000Y-90800000D02*
X129400000Y-99200000D01*
X126000000Y-93200000D02*
X129400000Y-93200000D01*
X126000000Y-96800000D02*
X129400000Y-96800000D01*
X129400000Y-90800000D02*
X137800000Y-95200000D01*
X140600000Y-95200000D02*
X137800000Y-95200000D01*
D12*
X130028572Y-93107143D02*
X131171429Y-93107143D01*
X130600000Y-93678571D02*
X130600000Y-92535714D01*
X130028572Y-96907143D02*
X131171429Y-96907143D01*
D14*
X132647619Y-93452381D02*
X132980952Y-94452381D01*
X133314286Y-93452381D01*
X133647619Y-94071429D02*
X134409524Y-94071429D01*
X134028572Y-94452381D02*
X134028572Y-93690476D01*
X132647619Y-95852381D02*
X132980952Y-96852381D01*
X133314286Y-95852381D01*
X133647619Y-96471429D02*
X134409524Y-96471429D01*
D13*
X133600000Y-97200000D02*
X133600000Y-98600000D01*
X132800000Y-98600000D02*
X134400000Y-98600000D01*
X133000000Y-99000000D02*
X134200000Y-99000000D01*
X133400000Y-99400000D02*
X133800000Y-99400000D01*
X133600000Y-91600000D02*
X133600000Y-93000000D01*
D12*
X133314287Y-89778571D02*
X132600001Y-89778571D01*
X132528572Y-90492857D01*
X132600001Y-90421429D01*
X132742858Y-90350000D01*
X133100001Y-90350000D01*
X133242858Y-90421429D01*
X133314287Y-90492857D01*
X133385715Y-90635714D01*
X133385715Y-90992857D01*
X133314287Y-91135714D01*
X133242858Y-91207143D01*
X133100001Y-91278571D01*
X132742858Y-91278571D01*
X132600001Y-91207143D01*
X132528572Y-91135714D01*
X133814286Y-89778571D02*
X134314286Y-91278571D01*
X134814286Y-89778571D01*
D13*
X129400000Y-99200000D02*
X137800000Y-95200000D01*
X129400000Y-87600000D02*
X137800000Y-83600000D01*
D12*
X133314287Y-78178571D02*
X132600001Y-78178571D01*
X132528572Y-78892857D01*
X132600001Y-78821429D01*
X132742858Y-78750000D01*
X133100001Y-78750000D01*
X133242858Y-78821429D01*
X133314287Y-78892857D01*
X133385715Y-79035714D01*
X133385715Y-79392857D01*
X133314287Y-79535714D01*
X133242858Y-79607143D01*
X133100001Y-79678571D01*
X132742858Y-79678571D01*
X132600001Y-79607143D01*
X132528572Y-79535714D01*
X133814286Y-78178571D02*
X134314286Y-79678571D01*
X134814286Y-78178571D01*
D13*
X133600000Y-80000000D02*
X133600000Y-81400000D01*
X133400000Y-87800000D02*
X133800000Y-87800000D01*
X133000000Y-87400000D02*
X134200000Y-87400000D01*
X132800000Y-87000000D02*
X134400000Y-87000000D01*
X133600000Y-85600000D02*
X133600000Y-87000000D01*
D14*
X132647619Y-84252381D02*
X132980952Y-85252381D01*
X133314286Y-84252381D01*
X133647619Y-84871429D02*
X134409524Y-84871429D01*
X132647619Y-81852381D02*
X132980952Y-82852381D01*
X133314286Y-81852381D01*
X133647619Y-82471429D02*
X134409524Y-82471429D01*
X134028572Y-82852381D02*
X134028572Y-82090476D01*
D12*
X130028572Y-85307143D02*
X131171429Y-85307143D01*
X130028572Y-81507143D02*
X131171429Y-81507143D01*
X130600000Y-82078571D02*
X130600000Y-80935714D01*
D13*
X129400000Y-79200000D02*
X137800000Y-83600000D01*
X126000000Y-85200000D02*
X129400000Y-85200000D01*
X126000000Y-81600000D02*
X129400000Y-81600000D01*
X129400000Y-79200000D02*
X129400000Y-87600000D01*
D12*
X115797619Y-90530952D02*
X115797619Y-88030952D01*
X116392857Y-88030952D01*
X116750000Y-88150000D01*
X116988095Y-88388095D01*
X117107143Y-88626190D01*
X117226191Y-89102381D01*
X117226191Y-89459524D01*
X117107143Y-89935714D01*
X116988095Y-90173810D01*
X116750000Y-90411905D01*
X116392857Y-90530952D01*
X115797619Y-90530952D01*
X118297619Y-89578571D02*
X120202381Y-89578571D01*
X115797619Y-94730952D02*
X115797619Y-92230952D01*
X116392857Y-92230952D01*
X116750000Y-92350000D01*
X116988095Y-92588095D01*
X117107143Y-92826190D01*
X117226191Y-93302381D01*
X117226191Y-93659524D01*
X117107143Y-94135714D01*
X116988095Y-94373810D01*
X116750000Y-94611905D01*
X116392857Y-94730952D01*
X115797619Y-94730952D01*
X118297619Y-93778571D02*
X120202381Y-93778571D01*
X119250000Y-94730952D02*
X119250000Y-92826190D01*
D11*
X126925000Y-70425000D02*
X126925000Y-71425000D01*
X128625000Y-71425000D02*
X128625000Y-70425000D01*
X110600000Y-90425000D02*
X112600000Y-90425000D01*
X112600000Y-88375000D02*
X110600000Y-88375000D01*
X110600000Y-94625000D02*
X112600000Y-94625000D01*
X112600000Y-92575000D02*
X110600000Y-92575000D01*
X112672800Y-66079600D02*
X116127200Y-66079600D01*
X112672800Y-62320400D02*
X116127200Y-62320400D01*
X100582540Y-62449100D02*
X100582540Y-71149100D01*
X106987540Y-62449100D02*
X106987540Y-71149100D01*
X106987540Y-71149100D02*
X100582540Y-71149100D01*
X101812540Y-71149100D02*
X101812540Y-62449100D01*
X100582540Y-62449100D02*
X106987540Y-62449100D01*
X130454880Y-61150140D02*
X144551880Y-61150140D01*
X144551880Y-76136140D02*
X130454880Y-76136140D01*
X130454880Y-61150140D02*
X130454880Y-76136140D01*
X144551880Y-61150140D02*
X144551880Y-76136140D01*
X127550000Y-80050000D02*
X127550000Y-81600000D01*
X124450000Y-81600000D02*
X124450000Y-80050000D01*
X124450000Y-80050000D02*
X127550000Y-80050000D01*
X124730000Y-82870000D02*
X127270000Y-82870000D01*
X127550000Y-83650000D02*
X127550000Y-85200000D01*
X124450000Y-85200000D02*
X124450000Y-83650000D01*
X124450000Y-83650000D02*
X127550000Y-83650000D01*
X124730000Y-86470000D02*
X127270000Y-86470000D01*
X142150000Y-82050000D02*
X142150000Y-83600000D01*
X139050000Y-83600000D02*
X139050000Y-82050000D01*
X139050000Y-82050000D02*
X142150000Y-82050000D01*
X139330000Y-84870000D02*
X141870000Y-84870000D01*
X127550000Y-91650000D02*
X127550000Y-93200000D01*
X124450000Y-93200000D02*
X124450000Y-91650000D01*
X124450000Y-91650000D02*
X127550000Y-91650000D01*
X124730000Y-94470000D02*
X127270000Y-94470000D01*
X127550000Y-95250000D02*
X127550000Y-96800000D01*
X124450000Y-96800000D02*
X124450000Y-95250000D01*
X124450000Y-95250000D02*
X127550000Y-95250000D01*
X124730000Y-98070000D02*
X127270000Y-98070000D01*
X142150000Y-93650000D02*
X142150000Y-95200000D01*
X139050000Y-95200000D02*
X139050000Y-93650000D01*
X139050000Y-93650000D02*
X142150000Y-93650000D01*
X139330000Y-96470000D02*
X141870000Y-96470000D01*
X105500000Y-90075000D02*
X104500000Y-90075000D01*
X104500000Y-88725000D02*
X105500000Y-88725000D01*
X105500000Y-94275000D02*
X104500000Y-94275000D01*
X104500000Y-92925000D02*
X105500000Y-92925000D01*
X103725000Y-76350000D02*
X103725000Y-76465000D01*
X107875000Y-76350000D02*
X107875000Y-76465000D01*
X107875000Y-85250000D02*
X107875000Y-85135000D01*
X103725000Y-85250000D02*
X103725000Y-85135000D01*
X103725000Y-76350000D02*
X107875000Y-76350000D01*
X103725000Y-85250000D02*
X107875000Y-85250000D01*
X103725000Y-76465000D02*
X102350000Y-76465000D01*
D15*
G36*
X122826840Y-68191560D02*
X122867480Y-68171240D01*
X122961460Y-68112820D01*
X123096080Y-68023920D01*
X123253560Y-67919780D01*
X123411040Y-67810560D01*
X123540580Y-67724200D01*
X123632020Y-67665780D01*
X123670120Y-67645460D01*
X123690440Y-67650540D01*
X123766640Y-67688640D01*
X123875860Y-67744520D01*
X123939360Y-67777540D01*
X124038420Y-67820720D01*
X124089220Y-67830880D01*
X124096840Y-67815640D01*
X124134940Y-67739440D01*
X124190820Y-67607360D01*
X124267020Y-67434640D01*
X124353380Y-67231440D01*
X124447360Y-67013000D01*
X124538800Y-66789480D01*
X124627700Y-66576120D01*
X124706440Y-66385620D01*
X124769940Y-66230680D01*
X124810580Y-66121460D01*
X124825820Y-66075740D01*
X124820740Y-66065580D01*
X124769940Y-66017320D01*
X124683580Y-65951280D01*
X124493080Y-65796340D01*
X124307660Y-65562660D01*
X124193360Y-65298500D01*
X124155260Y-65003860D01*
X124188280Y-64732080D01*
X124294960Y-64470460D01*
X124477840Y-64234240D01*
X124698820Y-64058980D01*
X124957900Y-63947220D01*
X125250000Y-63911660D01*
X125529400Y-63942140D01*
X125796100Y-64048820D01*
X126032320Y-64229160D01*
X126131380Y-64343460D01*
X126268540Y-64582220D01*
X126347280Y-64838760D01*
X126354900Y-64902260D01*
X126344740Y-65184200D01*
X126260920Y-65453440D01*
X126113600Y-65694740D01*
X125907860Y-65890320D01*
X125879920Y-65910640D01*
X125785940Y-65981760D01*
X125722440Y-66030020D01*
X125671640Y-66070660D01*
X126029780Y-66931720D01*
X126085660Y-67068880D01*
X126184720Y-67305100D01*
X126271080Y-67508300D01*
X126339660Y-67668320D01*
X126387920Y-67777540D01*
X126408240Y-67820720D01*
X126410780Y-67823260D01*
X126441260Y-67828340D01*
X126507300Y-67802940D01*
X126626680Y-67744520D01*
X126707960Y-67703880D01*
X126799400Y-67660700D01*
X126840040Y-67645460D01*
X126875600Y-67663240D01*
X126961960Y-67721660D01*
X127091500Y-67805480D01*
X127243900Y-67909620D01*
X127391220Y-68011220D01*
X127525840Y-68100120D01*
X127624900Y-68161080D01*
X127673160Y-68189020D01*
X127680780Y-68189020D01*
X127721420Y-68163620D01*
X127800160Y-68100120D01*
X127917000Y-67988360D01*
X128082100Y-67825800D01*
X128107500Y-67800400D01*
X128244660Y-67660700D01*
X128356420Y-67543860D01*
X128430080Y-67462580D01*
X128455480Y-67424480D01*
X128455480Y-67424480D01*
X128432620Y-67376220D01*
X128369120Y-67279700D01*
X128280220Y-67142540D01*
X128171000Y-66982520D01*
X127886520Y-66568500D01*
X128044000Y-66177340D01*
X128092260Y-66057960D01*
X128153220Y-65913180D01*
X128196400Y-65809040D01*
X128221800Y-65763320D01*
X128262440Y-65748080D01*
X128371660Y-65722680D01*
X128526600Y-65689660D01*
X128709480Y-65656640D01*
X128887280Y-65623620D01*
X129047300Y-65593140D01*
X129161600Y-65570280D01*
X129212400Y-65560120D01*
X129225100Y-65552500D01*
X129235260Y-65527100D01*
X129242880Y-65473760D01*
X129245420Y-65377240D01*
X129247960Y-65224840D01*
X129247960Y-65003860D01*
X129247960Y-64981000D01*
X129245420Y-64770180D01*
X129242880Y-64602540D01*
X129237800Y-64493320D01*
X129230180Y-64450140D01*
X129230180Y-64450140D01*
X129179380Y-64437440D01*
X129067620Y-64414580D01*
X128907600Y-64381560D01*
X128717100Y-64346000D01*
X128706940Y-64343460D01*
X128516440Y-64307900D01*
X128358960Y-64274880D01*
X128247200Y-64249480D01*
X128201480Y-64234240D01*
X128191320Y-64221540D01*
X128153220Y-64147880D01*
X128097340Y-64031040D01*
X128036380Y-63886260D01*
X127972880Y-63738940D01*
X127919540Y-63604320D01*
X127883980Y-63505260D01*
X127873820Y-63459540D01*
X127873820Y-63459540D01*
X127901760Y-63413820D01*
X127967800Y-63314760D01*
X128059240Y-63180140D01*
X128171000Y-63017580D01*
X128178620Y-63004880D01*
X128287840Y-62844860D01*
X128376740Y-62710240D01*
X128435160Y-62613720D01*
X128455480Y-62570540D01*
X128455480Y-62568000D01*
X128419920Y-62519740D01*
X128338640Y-62430840D01*
X128221800Y-62308920D01*
X128082100Y-62166680D01*
X128036380Y-62123500D01*
X127881440Y-61971100D01*
X127774760Y-61872040D01*
X127706180Y-61818700D01*
X127673160Y-61806000D01*
X127673160Y-61808540D01*
X127624900Y-61836480D01*
X127523300Y-61902520D01*
X127386140Y-61996500D01*
X127223580Y-62105720D01*
X127213420Y-62113340D01*
X127053400Y-62222560D01*
X126921320Y-62311460D01*
X126824800Y-62374960D01*
X126784160Y-62400360D01*
X126776540Y-62400360D01*
X126713040Y-62380040D01*
X126598740Y-62341940D01*
X126459040Y-62286060D01*
X126311720Y-62227640D01*
X126177100Y-62171760D01*
X126075500Y-62123500D01*
X126027240Y-62098100D01*
X126027240Y-62095560D01*
X126009460Y-62037140D01*
X125981520Y-61917760D01*
X125948500Y-61752660D01*
X125910400Y-61557080D01*
X125905320Y-61526600D01*
X125869760Y-61336100D01*
X125839280Y-61178620D01*
X125816420Y-61069400D01*
X125803720Y-61023680D01*
X125778320Y-61018600D01*
X125684340Y-61010980D01*
X125542100Y-61008440D01*
X125369380Y-61005900D01*
X125189040Y-61008440D01*
X125013780Y-61010980D01*
X124861380Y-61016060D01*
X124754700Y-61023680D01*
X124708980Y-61033840D01*
X124706440Y-61036380D01*
X124691200Y-61094800D01*
X124665800Y-61214180D01*
X124630240Y-61379280D01*
X124592140Y-61577400D01*
X124587060Y-61610420D01*
X124551500Y-61800920D01*
X124518480Y-61955860D01*
X124495620Y-62065080D01*
X124482920Y-62105720D01*
X124467680Y-62115880D01*
X124388940Y-62148900D01*
X124261940Y-62202240D01*
X124101920Y-62265740D01*
X123736160Y-62415600D01*
X123289120Y-62105720D01*
X123245940Y-62077780D01*
X123085920Y-61968560D01*
X122951300Y-61879660D01*
X122859860Y-61821240D01*
X122821760Y-61798380D01*
X122819220Y-61800920D01*
X122773500Y-61839020D01*
X122684600Y-61922840D01*
X122562680Y-62042220D01*
X122422980Y-62181920D01*
X122318840Y-62286060D01*
X122194380Y-62413060D01*
X122115640Y-62496880D01*
X122072460Y-62552760D01*
X122057220Y-62585780D01*
X122062300Y-62606100D01*
X122090240Y-62651820D01*
X122156280Y-62750880D01*
X122247720Y-62888040D01*
X122356940Y-63045520D01*
X122448380Y-63180140D01*
X122544900Y-63330000D01*
X122608400Y-63436680D01*
X122631260Y-63490020D01*
X122626180Y-63512880D01*
X122593160Y-63599240D01*
X122539820Y-63733860D01*
X122473780Y-63891340D01*
X122316300Y-64246940D01*
X122082620Y-64290120D01*
X121942920Y-64318060D01*
X121744800Y-64356160D01*
X121556840Y-64391720D01*
X121262200Y-64450140D01*
X121252040Y-65532180D01*
X121297760Y-65552500D01*
X121340940Y-65565200D01*
X121450160Y-65588060D01*
X121605100Y-65618540D01*
X121790520Y-65654100D01*
X121945460Y-65684580D01*
X122105480Y-65712520D01*
X122217240Y-65735380D01*
X122268040Y-65745540D01*
X122280740Y-65763320D01*
X122321380Y-65839520D01*
X122377260Y-65961440D01*
X122438220Y-66108760D01*
X122501720Y-66258620D01*
X122557600Y-66398320D01*
X122598240Y-66505000D01*
X122610940Y-66560880D01*
X122590620Y-66604060D01*
X122529660Y-66695500D01*
X122443300Y-66827580D01*
X122336620Y-66985060D01*
X122227400Y-67142540D01*
X122138500Y-67277160D01*
X122075000Y-67373680D01*
X122049600Y-67416860D01*
X122062300Y-67447340D01*
X122123260Y-67523540D01*
X122242640Y-67645460D01*
X122417900Y-67820720D01*
X122448380Y-67848660D01*
X122588080Y-67983280D01*
X122707460Y-68092500D01*
X122788740Y-68166160D01*
X122826840Y-68191560D01*
X122826840Y-68191560D01*
G37*
X122826840Y-68191560D02*
X122867480Y-68171240D01*
X122961460Y-68112820D01*
X123096080Y-68023920D01*
X123253560Y-67919780D01*
X123411040Y-67810560D01*
X123540580Y-67724200D01*
X123632020Y-67665780D01*
X123670120Y-67645460D01*
X123690440Y-67650540D01*
X123766640Y-67688640D01*
X123875860Y-67744520D01*
X123939360Y-67777540D01*
X124038420Y-67820720D01*
X124089220Y-67830880D01*
X124096840Y-67815640D01*
X124134940Y-67739440D01*
X124190820Y-67607360D01*
X124267020Y-67434640D01*
X124353380Y-67231440D01*
X124447360Y-67013000D01*
X124538800Y-66789480D01*
X124627700Y-66576120D01*
X124706440Y-66385620D01*
X124769940Y-66230680D01*
X124810580Y-66121460D01*
X124825820Y-66075740D01*
X124820740Y-66065580D01*
X124769940Y-66017320D01*
X124683580Y-65951280D01*
X124493080Y-65796340D01*
X124307660Y-65562660D01*
X124193360Y-65298500D01*
X124155260Y-65003860D01*
X124188280Y-64732080D01*
X124294960Y-64470460D01*
X124477840Y-64234240D01*
X124698820Y-64058980D01*
X124957900Y-63947220D01*
X125250000Y-63911660D01*
X125529400Y-63942140D01*
X125796100Y-64048820D01*
X126032320Y-64229160D01*
X126131380Y-64343460D01*
X126268540Y-64582220D01*
X126347280Y-64838760D01*
X126354900Y-64902260D01*
X126344740Y-65184200D01*
X126260920Y-65453440D01*
X126113600Y-65694740D01*
X125907860Y-65890320D01*
X125879920Y-65910640D01*
X125785940Y-65981760D01*
X125722440Y-66030020D01*
X125671640Y-66070660D01*
X126029780Y-66931720D01*
X126085660Y-67068880D01*
X126184720Y-67305100D01*
X126271080Y-67508300D01*
X126339660Y-67668320D01*
X126387920Y-67777540D01*
X126408240Y-67820720D01*
X126410780Y-67823260D01*
X126441260Y-67828340D01*
X126507300Y-67802940D01*
X126626680Y-67744520D01*
X126707960Y-67703880D01*
X126799400Y-67660700D01*
X126840040Y-67645460D01*
X126875600Y-67663240D01*
X126961960Y-67721660D01*
X127091500Y-67805480D01*
X127243900Y-67909620D01*
X127391220Y-68011220D01*
X127525840Y-68100120D01*
X127624900Y-68161080D01*
X127673160Y-68189020D01*
X127680780Y-68189020D01*
X127721420Y-68163620D01*
X127800160Y-68100120D01*
X127917000Y-67988360D01*
X128082100Y-67825800D01*
X128107500Y-67800400D01*
X128244660Y-67660700D01*
X128356420Y-67543860D01*
X128430080Y-67462580D01*
X128455480Y-67424480D01*
X128455480Y-67424480D01*
X128432620Y-67376220D01*
X128369120Y-67279700D01*
X128280220Y-67142540D01*
X128171000Y-66982520D01*
X127886520Y-66568500D01*
X128044000Y-66177340D01*
X128092260Y-66057960D01*
X128153220Y-65913180D01*
X128196400Y-65809040D01*
X128221800Y-65763320D01*
X128262440Y-65748080D01*
X128371660Y-65722680D01*
X128526600Y-65689660D01*
X128709480Y-65656640D01*
X128887280Y-65623620D01*
X129047300Y-65593140D01*
X129161600Y-65570280D01*
X129212400Y-65560120D01*
X129225100Y-65552500D01*
X129235260Y-65527100D01*
X129242880Y-65473760D01*
X129245420Y-65377240D01*
X129247960Y-65224840D01*
X129247960Y-65003860D01*
X129247960Y-64981000D01*
X129245420Y-64770180D01*
X129242880Y-64602540D01*
X129237800Y-64493320D01*
X129230180Y-64450140D01*
X129230180Y-64450140D01*
X129179380Y-64437440D01*
X129067620Y-64414580D01*
X128907600Y-64381560D01*
X128717100Y-64346000D01*
X128706940Y-64343460D01*
X128516440Y-64307900D01*
X128358960Y-64274880D01*
X128247200Y-64249480D01*
X128201480Y-64234240D01*
X128191320Y-64221540D01*
X128153220Y-64147880D01*
X128097340Y-64031040D01*
X128036380Y-63886260D01*
X127972880Y-63738940D01*
X127919540Y-63604320D01*
X127883980Y-63505260D01*
X127873820Y-63459540D01*
X127873820Y-63459540D01*
X127901760Y-63413820D01*
X127967800Y-63314760D01*
X128059240Y-63180140D01*
X128171000Y-63017580D01*
X128178620Y-63004880D01*
X128287840Y-62844860D01*
X128376740Y-62710240D01*
X128435160Y-62613720D01*
X128455480Y-62570540D01*
X128455480Y-62568000D01*
X128419920Y-62519740D01*
X128338640Y-62430840D01*
X128221800Y-62308920D01*
X128082100Y-62166680D01*
X128036380Y-62123500D01*
X127881440Y-61971100D01*
X127774760Y-61872040D01*
X127706180Y-61818700D01*
X127673160Y-61806000D01*
X127673160Y-61808540D01*
X127624900Y-61836480D01*
X127523300Y-61902520D01*
X127386140Y-61996500D01*
X127223580Y-62105720D01*
X127213420Y-62113340D01*
X127053400Y-62222560D01*
X126921320Y-62311460D01*
X126824800Y-62374960D01*
X126784160Y-62400360D01*
X126776540Y-62400360D01*
X126713040Y-62380040D01*
X126598740Y-62341940D01*
X126459040Y-62286060D01*
X126311720Y-62227640D01*
X126177100Y-62171760D01*
X126075500Y-62123500D01*
X126027240Y-62098100D01*
X126027240Y-62095560D01*
X126009460Y-62037140D01*
X125981520Y-61917760D01*
X125948500Y-61752660D01*
X125910400Y-61557080D01*
X125905320Y-61526600D01*
X125869760Y-61336100D01*
X125839280Y-61178620D01*
X125816420Y-61069400D01*
X125803720Y-61023680D01*
X125778320Y-61018600D01*
X125684340Y-61010980D01*
X125542100Y-61008440D01*
X125369380Y-61005900D01*
X125189040Y-61008440D01*
X125013780Y-61010980D01*
X124861380Y-61016060D01*
X124754700Y-61023680D01*
X124708980Y-61033840D01*
X124706440Y-61036380D01*
X124691200Y-61094800D01*
X124665800Y-61214180D01*
X124630240Y-61379280D01*
X124592140Y-61577400D01*
X124587060Y-61610420D01*
X124551500Y-61800920D01*
X124518480Y-61955860D01*
X124495620Y-62065080D01*
X124482920Y-62105720D01*
X124467680Y-62115880D01*
X124388940Y-62148900D01*
X124261940Y-62202240D01*
X124101920Y-62265740D01*
X123736160Y-62415600D01*
X123289120Y-62105720D01*
X123245940Y-62077780D01*
X123085920Y-61968560D01*
X122951300Y-61879660D01*
X122859860Y-61821240D01*
X122821760Y-61798380D01*
X122819220Y-61800920D01*
X122773500Y-61839020D01*
X122684600Y-61922840D01*
X122562680Y-62042220D01*
X122422980Y-62181920D01*
X122318840Y-62286060D01*
X122194380Y-62413060D01*
X122115640Y-62496880D01*
X122072460Y-62552760D01*
X122057220Y-62585780D01*
X122062300Y-62606100D01*
X122090240Y-62651820D01*
X122156280Y-62750880D01*
X122247720Y-62888040D01*
X122356940Y-63045520D01*
X122448380Y-63180140D01*
X122544900Y-63330000D01*
X122608400Y-63436680D01*
X122631260Y-63490020D01*
X122626180Y-63512880D01*
X122593160Y-63599240D01*
X122539820Y-63733860D01*
X122473780Y-63891340D01*
X122316300Y-64246940D01*
X122082620Y-64290120D01*
X121942920Y-64318060D01*
X121744800Y-64356160D01*
X121556840Y-64391720D01*
X121262200Y-64450140D01*
X121252040Y-65532180D01*
X121297760Y-65552500D01*
X121340940Y-65565200D01*
X121450160Y-65588060D01*
X121605100Y-65618540D01*
X121790520Y-65654100D01*
X121945460Y-65684580D01*
X122105480Y-65712520D01*
X122217240Y-65735380D01*
X122268040Y-65745540D01*
X122280740Y-65763320D01*
X122321380Y-65839520D01*
X122377260Y-65961440D01*
X122438220Y-66108760D01*
X122501720Y-66258620D01*
X122557600Y-66398320D01*
X122598240Y-66505000D01*
X122610940Y-66560880D01*
X122590620Y-66604060D01*
X122529660Y-66695500D01*
X122443300Y-66827580D01*
X122336620Y-66985060D01*
X122227400Y-67142540D01*
X122138500Y-67277160D01*
X122075000Y-67373680D01*
X122049600Y-67416860D01*
X122062300Y-67447340D01*
X122123260Y-67523540D01*
X122242640Y-67645460D01*
X122417900Y-67820720D01*
X122448380Y-67848660D01*
X122588080Y-67983280D01*
X122707460Y-68092500D01*
X122788740Y-68166160D01*
X122826840Y-68191560D01*
D11*
X125885714Y-72533333D02*
X125923810Y-72571428D01*
X125961905Y-72685714D01*
X125961905Y-72761904D01*
X125923810Y-72876190D01*
X125847619Y-72952381D01*
X125771429Y-72990476D01*
X125619048Y-73028571D01*
X125504762Y-73028571D01*
X125352381Y-72990476D01*
X125276190Y-72952381D01*
X125200000Y-72876190D01*
X125161905Y-72761904D01*
X125161905Y-72685714D01*
X125200000Y-72571428D01*
X125238095Y-72533333D01*
X125961905Y-71771428D02*
X125961905Y-72228571D01*
X125961905Y-72000000D02*
X125161905Y-72000000D01*
X125276190Y-72076190D01*
X125352381Y-72152381D01*
X125390476Y-72228571D01*
X113261905Y-87852381D02*
X113261905Y-86852381D01*
X113500000Y-86852381D01*
X113642858Y-86900000D01*
X113738096Y-86995238D01*
X113785715Y-87090476D01*
X113833334Y-87280952D01*
X113833334Y-87423810D01*
X113785715Y-87614286D01*
X113738096Y-87709524D01*
X113642858Y-87804762D01*
X113500000Y-87852381D01*
X113261905Y-87852381D01*
X114785715Y-87852381D02*
X114214286Y-87852381D01*
X114500000Y-87852381D02*
X114500000Y-86852381D01*
X114404762Y-86995238D01*
X114309524Y-87090476D01*
X114214286Y-87138095D01*
X113261905Y-92052381D02*
X113261905Y-91052381D01*
X113500000Y-91052381D01*
X113642858Y-91100000D01*
X113738096Y-91195238D01*
X113785715Y-91290476D01*
X113833334Y-91480952D01*
X113833334Y-91623810D01*
X113785715Y-91814286D01*
X113738096Y-91909524D01*
X113642858Y-92004762D01*
X113500000Y-92052381D01*
X113261905Y-92052381D01*
X114214286Y-91147619D02*
X114261905Y-91100000D01*
X114357143Y-91052381D01*
X114595239Y-91052381D01*
X114690477Y-91100000D01*
X114738096Y-91147619D01*
X114785715Y-91242857D01*
X114785715Y-91338095D01*
X114738096Y-91480952D01*
X114166667Y-92052381D01*
X114785715Y-92052381D01*
X109266667Y-60928571D02*
X108933333Y-60928571D01*
X108933333Y-61452381D02*
X108933333Y-60452381D01*
X109409524Y-60452381D01*
X110314286Y-61452381D02*
X109742857Y-61452381D01*
X110028571Y-61452381D02*
X110028571Y-60452381D01*
X109933333Y-60595238D01*
X109838095Y-60690476D01*
X109742857Y-60738095D01*
X106452381Y-70538095D02*
X105452381Y-70538095D01*
X105452381Y-70157142D01*
X105500000Y-70061904D01*
X105547619Y-70014285D01*
X105642857Y-69966666D01*
X105785714Y-69966666D01*
X105880952Y-70014285D01*
X105928571Y-70061904D01*
X105976190Y-70157142D01*
X105976190Y-70538095D01*
X106452381Y-69014285D02*
X106452381Y-69585714D01*
X106452381Y-69300000D02*
X105452381Y-69300000D01*
X105595238Y-69395238D01*
X105690476Y-69490476D01*
X105738095Y-69585714D01*
X136852381Y-69138095D02*
X135852381Y-69138095D01*
X135852381Y-68757142D01*
X135900000Y-68661904D01*
X135947619Y-68614285D01*
X136042857Y-68566666D01*
X136185714Y-68566666D01*
X136280952Y-68614285D01*
X136328571Y-68661904D01*
X136376190Y-68757142D01*
X136376190Y-69138095D01*
X135947619Y-68185714D02*
X135900000Y-68138095D01*
X135852381Y-68042857D01*
X135852381Y-67804761D01*
X135900000Y-67709523D01*
X135947619Y-67661904D01*
X136042857Y-67614285D01*
X136138095Y-67614285D01*
X136280952Y-67661904D01*
X136852381Y-68233333D01*
X136852381Y-67614285D01*
X101433334Y-89852381D02*
X101100000Y-89376190D01*
X100861905Y-89852381D02*
X100861905Y-88852381D01*
X101242858Y-88852381D01*
X101338096Y-88900000D01*
X101385715Y-88947619D01*
X101433334Y-89042857D01*
X101433334Y-89185714D01*
X101385715Y-89280952D01*
X101338096Y-89328571D01*
X101242858Y-89376190D01*
X100861905Y-89376190D01*
X102385715Y-89852381D02*
X101814286Y-89852381D01*
X102100000Y-89852381D02*
X102100000Y-88852381D01*
X102004762Y-88995238D01*
X101909524Y-89090476D01*
X101814286Y-89138095D01*
X101433334Y-94052381D02*
X101100000Y-93576190D01*
X100861905Y-94052381D02*
X100861905Y-93052381D01*
X101242858Y-93052381D01*
X101338096Y-93100000D01*
X101385715Y-93147619D01*
X101433334Y-93242857D01*
X101433334Y-93385714D01*
X101385715Y-93480952D01*
X101338096Y-93528571D01*
X101242858Y-93576190D01*
X100861905Y-93576190D01*
X101814286Y-93147619D02*
X101861905Y-93100000D01*
X101957143Y-93052381D01*
X102195239Y-93052381D01*
X102290477Y-93100000D01*
X102338096Y-93147619D01*
X102385715Y-93242857D01*
X102385715Y-93338095D01*
X102338096Y-93480952D01*
X101766667Y-94052381D01*
X102385715Y-94052381D01*
X102238095Y-74852381D02*
X102238095Y-75661905D01*
X102285714Y-75757143D01*
X102333333Y-75804762D01*
X102428571Y-75852381D01*
X102619048Y-75852381D01*
X102714286Y-75804762D01*
X102761905Y-75757143D01*
X102809524Y-75661905D01*
X102809524Y-74852381D01*
X103809524Y-75852381D02*
X103238095Y-75852381D01*
X103523809Y-75852381D02*
X103523809Y-74852381D01*
X103428571Y-74995238D01*
X103333333Y-75090476D01*
X103238095Y-75138095D01*
M02*
